<?xml version="1.0" encoding="UTF-8"?>
<svg width="40px" height="40px" viewBox="0 0 40 40" version="1.1" xmlns="http://www.w3.org/2000/svg" xmlns:xlink="http://www.w3.org/1999/xlink">
    <!-- Generator: Sketch 49.1 (51147) - http://www.bohemiancoding.com/sketch -->
    <title>user-default</title>
    <desc>Created with Sketch.</desc>
    <defs>
        <circle id="path-1" cx="20" cy="20" r="20"></circle>
    </defs>
    <g id="user-default" stroke="none" stroke-width="1" fill="none" fill-rule="evenodd">
        <g id="Oval-3">
            <mask id="mask-2" fill="white">
                <use xlink:href="#path-1"></use>
            </mask>
            <use id="Mask" fill="#ABD5FF" xlink:href="#path-1"></use>
        </g>
        <path d="M20,23.424 C21.4880074,23.424 23.1199911,23.6399978 24.896,24.072 C26.9120101,24.5760025 28.5439938,25.2479958 29.792,26.088 C31.2800074,27.0720049 32.024,28.1759939 32.024,29.4 L32.024,32.424 L7.976,32.424 L7.976,29.4 C7.976,28.1759939 8.71999256,27.0720049 10.208,26.088 C11.4560062,25.2479958 13.0879899,24.5760025 15.104,24.072 C16.8800089,23.6399978 18.5119926,23.424 20,23.424 Z M20,20.4 C18.9199946,20.4 17.9240046,20.1300027 17.012,19.59 C16.0999954,19.0499973 15.3740027,18.3240046 14.834,17.412 C14.2939973,16.4999954 14.024,15.5040054 14.024,14.424 C14.024,13.3439946 14.2939973,12.3360047 14.834,11.4 C15.3740027,10.4639953 16.0999954,9.7260027 17.012,9.186 C17.9240046,8.6459973 18.9199946,8.376 20,8.376 C21.0800054,8.376 22.0759954,8.6459973 22.988,9.186 C23.9000046,9.7260027 24.6259973,10.4639953 25.166,11.4 C25.7060027,12.3360047 25.976,13.3439946 25.976,14.424 C25.976,15.5040054 25.7060027,16.4999954 25.166,17.412 C24.6259973,18.3240046 23.9000046,19.0499973 22.988,19.59 C22.0759954,20.1300027 21.0800054,20.4 20,20.4 Z" id="person---material" fill="#1989FA"></path>
    </g>
</svg>