<?xml version="1.0" encoding="UTF-8"?>
<svg width="800px" height="569px" viewBox="0 0 800 569" version="1.1" xmlns="http://www.w3.org/2000/svg" xmlns:xlink="http://www.w3.org/1999/xlink">
    <!-- Generator: Sketch 51.2 (57519) - http://www.bohemiancoding.com/sketch -->
    <title>welcome-bg</title>
    <desc>Created with Sketch.</desc>
    <defs>
        <linearGradient x1="21.4995943%" y1="56.8712559%" x2="71.2830801%" y2="34.7865534%" id="linearGradient-1">
            <stop stop-color="#CCD3DC" offset="0%"></stop>
            <stop stop-color="#E8EDF4" offset="49.8548259%"></stop>
            <stop stop-color="#FFFFFF" stop-opacity="0" offset="100%"></stop>
        </linearGradient>
        <linearGradient x1="128.417283%" y1="32.7833779%" x2="54.6673731%" y2="93.9000183%" id="linearGradient-2">
            <stop stop-color="#F2F6FC" offset="0%"></stop>
            <stop stop-color="#C6D2DD" offset="100%"></stop>
        </linearGradient>
        <linearGradient x1="50%" y1="83.6674459%" x2="48.6584153%" y2="32.6495711%" id="linearGradient-3">
            <stop stop-color="#FFFFFF" stop-opacity="0" offset="0%"></stop>
            <stop stop-color="#B9C3CB" offset="100%"></stop>
        </linearGradient>
        <linearGradient x1="50%" y1="0%" x2="14.1544782%" y2="37.8103739%" id="linearGradient-4">
            <stop stop-color="#CDD6DE" offset="0%"></stop>
            <stop stop-color="#9FACBA" offset="100%"></stop>
        </linearGradient>
        <linearGradient x1="50%" y1="0%" x2="44.5976541%" y2="28.485173%" id="linearGradient-5">
            <stop stop-color="#D8E2EA" offset="0%"></stop>
            <stop stop-color="#B0C1D0" offset="100%"></stop>
        </linearGradient>
        <filter x="-41.8%" y="-26.0%" width="184.0%" height="198.8%" filterUnits="objectBoundingBox" id="filter-6">
            <feOffset dx="0" dy="22" in="SourceAlpha" result="shadowOffsetOuter1"></feOffset>
            <feGaussianBlur stdDeviation="12" in="shadowOffsetOuter1" result="shadowBlurOuter1"></feGaussianBlur>
            <feColorMatrix values="0 0 0 0 0.0469254805   0 0 0 0 0.2642144   0 0 0 0 0.449378189  0 0 0 0.5 0" type="matrix" in="shadowBlurOuter1" result="shadowMatrixOuter1"></feColorMatrix>
            <feMerge>
                <feMergeNode in="shadowMatrixOuter1"></feMergeNode>
                <feMergeNode in="SourceGraphic"></feMergeNode>
            </feMerge>
        </filter>
        <linearGradient x1="160.386506%" y1="0%" x2="50%" y2="100%" id="linearGradient-7">
            <stop stop-color="#FFE7C2" offset="0%"></stop>
            <stop stop-color="#FFCB8F" offset="100%"></stop>
        </linearGradient>
        <linearGradient x1="50%" y1="-38.1749626%" x2="40.3788533%" y2="40.2083956%" id="linearGradient-8">
            <stop stop-color="#FFE2B9" offset="0%"></stop>
            <stop stop-color="#FFC083" offset="100%"></stop>
        </linearGradient>
        <linearGradient x1="25.8611671%" y1="71.4532304%" x2="42.6704855%" y2="31.3850892%" id="linearGradient-9">
            <stop stop-color="#FFFFFF" stop-opacity="0" offset="0%"></stop>
            <stop stop-color="#132E3C" offset="100%"></stop>
        </linearGradient>
        <polygon id="path-10" points="29.3961021 33.5850869 148.172914 62.3943777 148.172914 184.618586 29.3961021 150.4952"></polygon>
        <filter x="-0.8%" y="-0.7%" width="101.7%" height="102.6%" filterUnits="objectBoundingBox" id="filter-11">
            <feOffset dx="0" dy="2" in="SourceAlpha" result="shadowOffsetOuter1"></feOffset>
            <feColorMatrix values="0 0 0 0 0.234730576   0 0 0 0 0.347048718   0 0 0 0 0.474516369  0 0 0 1 0" type="matrix" in="shadowOffsetOuter1"></feColorMatrix>
        </filter>
        <polygon id="path-12" points="147.994169 30.3966293 238.5726 62.3943777 238.5726 184.618586 149.007828 147.306742"></polygon>
        <filter x="-1.1%" y="-0.6%" width="102.2%" height="102.6%" filterUnits="objectBoundingBox" id="filter-13">
            <feOffset dx="0" dy="2" in="SourceAlpha" result="shadowOffsetOuter1"></feOffset>
            <feColorMatrix values="0 0 0 0 0.234730576   0 0 0 0 0.347048718   0 0 0 0 0.474516369  0 0 0 1 0" type="matrix" in="shadowOffsetOuter1"></feColorMatrix>
        </filter>
        <linearGradient x1="73.8557302%" y1="31.7901991%" x2="50%" y2="83.1450895%" id="linearGradient-14">
            <stop stop-color="#F1F6FA" offset="0%"></stop>
            <stop stop-color="#DEEAF4" offset="100%"></stop>
        </linearGradient>
        <linearGradient x1="56.4902836%" y1="12.6754828%" x2="50%" y2="83.1450895%" id="linearGradient-15">
            <stop stop-color="#F1F6FA" offset="0%"></stop>
            <stop stop-color="#DEEAF4" offset="100%"></stop>
        </linearGradient>
        <polygon id="path-16" points="29.8808935 0 0 48.3482206 115.492513 80.7742597 149.007828 28.8101151"></polygon>
        <linearGradient x1="50%" y1="0%" x2="59.7150531%" y2="72.4767836%" id="linearGradient-18">
            <stop stop-color="#FFF1BC" offset="0%"></stop>
            <stop stop-color="#FFDF87" offset="100%"></stop>
        </linearGradient>
        <path d="M0,36.7102636 C14.1878554,27.0149532 21.6256712,14.9356456 22.3134473,0.472340778 C26.0389049,-0.0838759999 33.2352083,0.610136352 51.2908371,3.75251882 C52.9722887,4.04515687 53.1209651,6.7149802 51.7368663,11.7619888 C57.8243484,13.9963992 60.613644,16.1248018 60.1047531,18.1471966 C55.692677,35.6813281 49.8556644,43.6756147 41.0462733,47.4322712 C30.9411359,48.7163499 17.2590448,45.1423473 0,36.7102636 Z" id="path-19"></path>
        <filter x="-14.1%" y="-17.9%" width="128.3%" height="171.7%" filterUnits="objectBoundingBox" id="filter-20">
            <feOffset dx="0" dy="17" in="SourceAlpha" result="shadowOffsetOuter1"></feOffset>
            <feColorMatrix values="0 0 0 0 0.105882353   0 0 0 0 0.207843137   0 0 0 0 0.329411765  0 0 0 0.272192029 0" type="matrix" in="shadowOffsetOuter1"></feColorMatrix>
        </filter>
        <linearGradient x1="50%" y1="0%" x2="59.7150531%" y2="72.4767836%" id="linearGradient-21">
            <stop stop-color="#D1FFBC" offset="0%"></stop>
            <stop stop-color="#87FFB3" offset="100%"></stop>
        </linearGradient>
        <path d="M0,26.6876056 C10.3142787,19.6393146 15.7214176,10.8579068 16.2214167,0.343382018 C18.9297476,-0.0609761246 24.1613119,0.443556563 37.2873823,2.7280039 C38.5097629,2.94074574 38.6178476,4.88165231 37.6116363,8.55072363 C42.0371104,10.175094 44.0648709,11.7223988 43.6949177,13.1926382 C40.4874292,25.9395907 36.2440413,31.7512724 29.8397953,34.4822844 C22.4935686,35.4157831 12.5469701,32.8175568 0,26.6876056 Z" id="path-22"></path>
        <filter x="-19.4%" y="-24.7%" width="138.9%" height="198.7%" filterUnits="objectBoundingBox" id="filter-23">
            <feOffset dx="0" dy="17" in="SourceAlpha" result="shadowOffsetOuter1"></feOffset>
            <feColorMatrix values="0 0 0 0 0.105882353   0 0 0 0 0.207843137   0 0 0 0 0.329411765  0 0 0 0.272192029 0" type="matrix" in="shadowOffsetOuter1"></feColorMatrix>
        </filter>
        <linearGradient x1="26.0321512%" y1="100%" x2="59.0180169%" y2="50%" id="linearGradient-24">
            <stop stop-color="#FFC7DF" offset="0%"></stop>
            <stop stop-color="#FF96BC" offset="100%"></stop>
        </linearGradient>
        <path d="M28.2364083,9.22638062 C30.6620005,24.1488584 20.0987961,39.39928 6.92735215,50.269935 C17.9939799,56.2557819 38.0852188,64.596223 54.3285091,69.6559065 C55.1012223,69.8966018 57.5269445,69.599287 58.281038,69.7309718 C62.8400164,70.527091 65.4155708,67.2184251 67.1523934,66.2226477 C74.3091276,58.7059462 81.3502476,53.2775712 84.9319416,42.7346535 C86.7683444,37.3290988 87.8070871,32.7260436 87.8518058,30.749506 C82.0557901,25.3664484 68.2053151,25.5189804 28.2364083,9.22638062 Z" id="path-25"></path>
        <filter x="-10.5%" y="-14.0%" width="121.0%" height="156.1%" filterUnits="objectBoundingBox" id="filter-26">
            <feOffset dx="0" dy="17" in="SourceAlpha" result="shadowOffsetOuter1"></feOffset>
            <feColorMatrix values="0 0 0 0 0.105882353   0 0 0 0 0.207843137   0 0 0 0 0.329411765  0 0 0 0.270720109 0" type="matrix" in="shadowOffsetOuter1"></feColorMatrix>
        </filter>
    </defs>
    <g id="welcome-bg" stroke="none" stroke-width="1" fill="none" fill-rule="evenodd">
        <g id="Artwork" transform="translate(400.000000, 278.000000) scale(-1, 1) translate(-400.000000, -278.000000) translate(-1.000000, -1.000000)">
            <g id="Wall" opacity="0.300000012">
                <polygon id="wall" fill="url(#linearGradient-1)" points="195.921355 0.227301906 801.655108 0.227301906 801.655108 557.900699 198.17431 376.383397"></polygon>
                <polygon id="wall" fill="url(#linearGradient-2)" points="0.483197492 0.997684536 198 0.997684536 198 371.956897 204.5 382.342601 0.483197492 465.681248"></polygon>
            </g>
            <g transform="translate(79.000000, 116.104036)">
                <path d="M31.9631965,206.532371 L238.142941,203.064374 L237.681744,292.750848 C237.676915,293.6899 238.28903,294.52078 239.187317,294.7945 L380.720538,337.921593 C380.734529,337.925856 380.748564,337.929975 380.762641,337.933949 L687,424.380269 L270.482846,428.884305 L31.0376863,307.434732 C30.3237793,307.07263 29.8739345,306.340062 29.8739345,305.539573 L29.8739345,208.657071 C29.8739345,207.497399 30.8036884,206.551874 31.9631965,206.532371 Z" id="Shadow" fill="url(#linearGradient-3)"></path>
                <g id="Box" transform="translate(0.000000, 154.914500)">
                    <polygon id="side" fill="url(#linearGradient-4)" transform="translate(74.178488, 76.154441) scale(-1, 1) translate(-74.178488, -76.154441) " points="29.3961021 1.70051073 118.960874 33.6982591 118.960874 150.608372 30.4097608 118.610623"></polygon>
                    <polygon id="side" fill="url(#linearGradient-5)" points="118.598067 1.70051073 237.37488 30.5098015 237.37488 147.419914 118.598067 118.610623"></polygon>
                    <g id="cat" filter="url(#filter-6)" transform="translate(91.242941, 0.000000)">
                        <path d="M31.5201547,5.34972052 C43.7445408,20.4534672 48.5803966,30.713217 46.0277222,36.1289701 C42.6029501,43.3949653 20.4373594,43.3949653 17.0125873,36.1289701 C14.4599129,30.713217 19.2957687,20.4534672 31.5201547,5.34972052 Z" id="Triangle" fill="url(#linearGradient-7)" transform="translate(31.520155, 23.464093) rotate(-27.000000) translate(-31.520155, -23.464093) "></path>
                        <path d="M31.5201547,14.1124255 C37.831077,21.9098372 40.3276204,27.2065027 39.0097849,30.002422 C37.2417231,33.7535414 25.7985864,33.7535414 24.0305245,30.002422 C22.712689,27.2065027 25.2092324,21.9098372 31.5201547,14.1124255 Z" id="Triangle-Copy-2" fill="#FBA581" transform="translate(31.520155, 23.464093) rotate(-27.000000) translate(-31.520155, -23.464093) "></path>
                        <path d="M80.7228857,5.34972052 C92.9472718,20.4534672 97.7831276,30.713217 95.2304532,36.1289701 C91.8056811,43.3949653 69.6400904,43.3949653 66.2153183,36.1289701 C63.6626439,30.713217 68.4984997,20.4534672 80.7228857,5.34972052 Z" id="Triangle-Copy" fill="url(#linearGradient-7)" transform="translate(80.722886, 23.464093) scale(-1, 1) rotate(-27.000000) translate(-80.722886, -23.464093) "></path>
                        <path d="M80.9652859,14.1124255 C87.2762082,21.9098372 89.7727516,27.2065027 88.4549161,30.002422 C86.6868542,33.7535414 75.2437175,33.7535414 73.4756557,30.002422 C72.1578202,27.2065027 74.6543636,21.9098372 80.9652859,14.1124255 Z" id="Triangle-Copy-2" fill="#FBA581" transform="translate(80.965286, 23.464093) scale(-1, 1) rotate(-27.000000) translate(-80.965286, -23.464093) "></path>
                        <path d="M56.5190947,86.6943101 C69.6758641,86.6943101 69.6511056,81.3985837 77.0980105,77.3451138 C88.7959035,70.9777627 99.7684389,83.9695234 99.7684389,68.7969606 C99.7684389,53.19033 92.1195995,38.3303769 80.5064273,29.4433847 C76.6509448,26.4929726 72.3585181,24.2008932 67.76397,22.7583856 C64.1783231,21.6326333 59.7982352,22.2941704 55.9086594,22.2941704 C51.3081963,22.2941704 47.4859341,21.8753174 43.3270334,23.4269349 C38.8145791,25.1104575 34.6244521,27.6187713 30.8920897,30.7597656 C20.204007,39.7543925 13.2697504,53.9372164 13.2697504,68.7969606 C13.2697504,82.7751513 22.5827809,69.1995732 33.1961153,75.7531293 C41.4367579,80.841588 43.3623253,86.6943101 56.5190947,86.6943101 Z" id="Oval" fill="url(#linearGradient-8)"></path>
                        <path d="M55.6800182,16.4957784 C52.2381454,18.6344706 48.9874877,21.7318383 45.9280452,25.7878816 C48.3334912,24.5148169 50.0412053,23.0447481 53.7505759,24.2250995 C56.2234897,25.0120005 56.8666371,22.4355601 55.6800182,16.4957784 Z" id="Path-3" fill="#FFD29F" transform="translate(51.092606, 21.141830) scale(-1, 1) rotate(71.000000) translate(-51.092606, -21.141830) "></path>
                        <path d="M62.394807,16.4957784 C58.9529342,18.6344706 55.7022765,21.7318383 52.642834,25.7878816 C55.04828,24.5148169 56.7559941,23.0447481 60.4653647,24.2250995 C62.9382785,25.0120005 63.5814259,22.4355601 62.394807,16.4957784 Z" id="Path-3-Copy-6" fill="#FFD29F" transform="translate(57.807395, 21.141830) scale(-1, 1) rotate(52.000000) translate(-57.807395, -21.141830) "></path>
                        <g id="Group-9" transform="translate(0.000000, 38.940592)" fill="#FFC083">
                            <g id="Group-8" transform="translate(7.825224, 0.000000)">
                                <path d="M15.5027859,0.413295607 C12.0609131,2.55198784 8.8102554,5.64935557 5.75081287,9.7053988 C8.15625888,8.43233413 9.86397297,6.96226535 13.5733436,8.14261676 C16.0462574,8.9295177 16.6894048,6.35307732 15.5027859,0.413295607 Z" id="Path-3"></path>
                                <path d="M13.1220881,6.18814381 C9.68021524,8.32683605 6.42955755,11.4242038 3.37011502,15.480247 C5.77556103,14.2071823 7.48327512,12.7371136 11.1926458,13.917465 C13.6655595,14.7043659 14.308707,12.1279255 13.1220881,6.18814381 Z" id="Path-3-Copy"></path>
                                <path d="M15.6479421,11.4771019 C8.66779741,12.3674648 3.96287296,15.9179583 1.53316874,22.1285825 C4.99939349,19.0802815 7.16661158,18.1010415 12.7562902,19.8797219 C16.4827426,21.0655089 17.4466266,18.2646356 15.6479421,11.4771019 Z" id="Path-3-Copy-2" transform="translate(9.029721, 16.802842) rotate(-14.000000) translate(-9.029721, -16.802842) "></path>
                            </g>
                            <g id="Group-7" transform="translate(13.754532, 32.343090) rotate(-26.000000) translate(-13.754532, -32.343090) translate(4.754532, 20.332328)">
                                <path d="M15.5027859,0.413295607 C12.0609131,2.55198784 8.8102554,5.64935557 5.75081287,9.7053988 C8.15625888,8.43233413 9.86397297,6.96226535 13.5733436,8.14261676 C16.0462574,8.9295177 16.6894048,6.35307732 15.5027859,0.413295607 Z" id="Path-3-Copy-5"></path>
                                <path d="M13.1220881,6.18814381 C9.68021524,8.32683605 6.42955755,11.4242038 3.37011502,15.480247 C5.77556103,14.2071823 7.48327512,12.7371136 11.1926458,13.917465 C13.6655595,14.7043659 14.308707,12.1279255 13.1220881,6.18814381 Z" id="Path-3-Copy-4"></path>
                                <path d="M15.6479421,11.4771019 C8.66779741,12.3674648 3.96287296,15.9179583 1.53316874,22.1285825 C4.99939349,19.0802815 7.16661158,18.1010415 12.7562902,19.8797219 C16.4827426,21.0655089 17.4466266,18.2646356 15.6479421,11.4771019 Z" id="Path-3-Copy-3" transform="translate(9.029721, 16.802842) rotate(-14.000000) translate(-9.029721, -16.802842) "></path>
                            </g>
                            <g id="Group-7-Copy" transform="translate(32.655747, 34.306479) rotate(-53.000000) translate(-32.655747, -34.306479) translate(23.655747, 22.545941)">
                                <path d="M15.488951,0.119529646 C12.0470782,2.25822188 8.79642051,5.35558961 5.73697798,9.41163283 C8.14242399,8.13856817 9.85013808,6.66849939 13.5595087,7.8488508 C16.0324225,8.63575174 16.6755699,6.05931136 15.488951,0.119529646 Z" id="Path-3-Copy-5"></path>
                                <path d="M13.1082532,5.89437785 C9.66638035,8.03307009 6.41572266,11.1304378 3.35628014,15.186481 C5.76172614,13.9134164 7.46944024,12.4433476 11.1788109,13.623699 C13.6517246,14.4105999 14.2948721,11.8341596 13.1082532,5.89437785 Z" id="Path-3-Copy-4"></path>
                                <path d="M15.6341072,11.183336 C8.65396252,12.0736988 3.94903807,15.6241924 1.51933385,21.8348165 C4.98555861,18.7865155 7.15277669,17.8072755 12.7424553,19.5859559 C16.4689077,20.7717429 17.4327917,17.9708696 15.6341072,11.183336 Z" id="Path-3-Copy-3" transform="translate(9.015886, 16.509076) rotate(-14.000000) translate(-9.015886, -16.509076) "></path>
                            </g>
                            <g id="Group-7-Copy-2" transform="translate(46.171247, 46.470793) rotate(-82.000000) translate(-46.171247, -46.470793) translate(37.421247, 34.710255)">
                                <path d="M15.3248012,0.0314908506 C11.8829283,2.17018309 8.63227063,5.26755082 5.57282811,9.32359404 C7.97827411,8.05052938 9.68598821,6.5804606 13.3953589,7.76081201 C15.8682726,8.54771295 16.5114201,5.97127256 15.3248012,0.0314908506 Z" id="Path-3-Copy-5"></path>
                                <path d="M12.9441033,5.80633906 C9.50223047,7.94503129 6.25157278,11.042399 3.19213026,15.0984422 C5.59757626,13.8253776 7.30529036,12.3553088 11.014661,13.5356602 C13.4875748,14.3225612 14.1307222,11.7461208 12.9441033,5.80633906 Z" id="Path-3-Copy-4"></path>
                                <path d="M15.4699573,11.0952972 C8.48981264,11.98566 3.78488819,15.5361536 1.35518398,21.7467778 C4.82140873,18.6984767 6.98862681,17.7192367 12.5783054,19.4979172 C16.3047579,20.6837041 17.2686418,17.8828308 15.4699573,11.0952972 Z" id="Path-3-Copy-3" transform="translate(8.851736, 16.421037) rotate(-14.000000) translate(-8.851736, -16.421037) "></path>
                            </g>
                        </g>
                        <g id="Group-9-Copy" transform="translate(84.738798, 67.466152) scale(-1, 1) translate(-84.738798, -67.466152) translate(56.988798, 38.940592)" fill="#FFC083">
                            <g id="Group-8" transform="translate(7.825224, 0.000000)">
                                <path d="M15.5027859,0.413295607 C12.0609131,2.55198784 8.8102554,5.64935557 5.75081287,9.7053988 C8.15625888,8.43233413 9.86397297,6.96226535 13.5733436,8.14261676 C16.0462574,8.9295177 16.6894048,6.35307732 15.5027859,0.413295607 Z" id="Path-3"></path>
                                <path d="M13.1220881,6.18814381 C9.68021524,8.32683605 6.42955755,11.4242038 3.37011502,15.480247 C5.77556103,14.2071823 7.48327512,12.7371136 11.1926458,13.917465 C13.6655595,14.7043659 14.308707,12.1279255 13.1220881,6.18814381 Z" id="Path-3-Copy"></path>
                                <path d="M15.6479421,11.4771019 C8.66779741,12.3674648 3.96287296,15.9179583 1.53316874,22.1285825 C4.99939349,19.0802815 7.16661158,18.1010415 12.7562902,19.8797219 C16.4827426,21.0655089 17.4466266,18.2646356 15.6479421,11.4771019 Z" id="Path-3-Copy-2" transform="translate(9.029721, 16.802842) rotate(-14.000000) translate(-9.029721, -16.802842) "></path>
                            </g>
                            <g id="Group-7" transform="translate(13.754532, 32.343090) rotate(-26.000000) translate(-13.754532, -32.343090) translate(4.754532, 20.332328)">
                                <path d="M15.5027859,0.413295607 C12.0609131,2.55198784 8.8102554,5.64935557 5.75081287,9.7053988 C8.15625888,8.43233413 9.86397297,6.96226535 13.5733436,8.14261676 C16.0462574,8.9295177 16.6894048,6.35307732 15.5027859,0.413295607 Z" id="Path-3-Copy-5"></path>
                                <path d="M13.1220881,6.18814381 C9.68021524,8.32683605 6.42955755,11.4242038 3.37011502,15.480247 C5.77556103,14.2071823 7.48327512,12.7371136 11.1926458,13.917465 C13.6655595,14.7043659 14.308707,12.1279255 13.1220881,6.18814381 Z" id="Path-3-Copy-4"></path>
                                <path d="M15.6479421,11.4771019 C8.66779741,12.3674648 3.96287296,15.9179583 1.53316874,22.1285825 C4.99939349,19.0802815 7.16661158,18.1010415 12.7562902,19.8797219 C16.4827426,21.0655089 17.4466266,18.2646356 15.6479421,11.4771019 Z" id="Path-3-Copy-3" transform="translate(9.029721, 16.802842) rotate(-14.000000) translate(-9.029721, -16.802842) "></path>
                            </g>
                            <g id="Group-7-Copy" transform="translate(29.006134, 34.305334) rotate(-53.000000) translate(-29.006134, -34.305334) translate(20.256134, 22.544795)">
                                <path d="M15.2251724,0.117231454 C11.7832995,2.25592369 8.53264183,5.35329142 5.47319931,9.40933464 C7.87864531,8.13626998 9.58635941,6.6662012 13.2957301,7.84655261 C15.7686438,8.63345355 16.4117913,6.05701316 15.2251724,0.117231454 Z" id="Path-3-Copy-5"></path>
                                <path d="M12.8444745,5.89207966 C9.40260167,8.0307719 6.15194399,11.1281396 3.09250146,15.1841828 C5.49794746,13.9111182 7.20566156,12.4410494 10.9150322,13.6214008 C13.387946,14.4083018 14.0310934,11.8318614 12.8444745,5.89207966 Z" id="Path-3-Copy-4"></path>
                                <path d="M15.3703285,11.1810378 C8.39018384,12.0714006 3.68525939,15.6218942 1.25555518,21.8325184 C4.72177993,18.7842173 6.88899801,17.8049773 12.4786766,19.5836578 C16.2051291,20.7694447 17.169013,17.9685714 15.3703285,11.1810378 Z" id="Path-3-Copy-3" transform="translate(8.752107, 16.506778) rotate(-14.000000) translate(-8.752107, -16.506778) "></path>
                            </g>
                            <g id="Group-7-Copy-2" transform="translate(42.499608, 46.454738) rotate(-82.000000) translate(-42.499608, -46.454738) translate(33.499608, 34.694200)">
                                <path d="M15.5320274,0.068565477 C12.0901546,2.20725771 8.83949692,5.30462544 5.78005439,9.36066867 C8.18550039,8.087604 9.89321449,6.61753522 13.6025851,7.79788663 C16.0754989,8.58478757 16.7186463,6.00834719 15.5320274,0.068565477 Z" id="Path-3-Copy-5"></path>
                                <path d="M13.1513296,5.84341368 C9.70945675,7.98210592 6.45879907,11.0794736 3.39935654,15.1355169 C5.80480254,13.8624522 7.51251664,12.3923834 11.2218873,13.5727348 C13.694801,14.3596358 14.3379485,11.7831954 13.1513296,5.84341368 Z" id="Path-3-Copy-4"></path>
                                <path d="M15.6771836,11.1323718 C8.69703892,12.0227347 3.99211448,15.5732282 1.56241026,21.7838524 C5.02863501,18.7355513 7.19585309,17.7563113 12.7855317,19.5349918 C16.5119841,20.7207787 17.4758681,17.9199054 15.6771836,11.1323718 Z" id="Path-3-Copy-3" transform="translate(9.058962, 16.458112) rotate(-14.000000) translate(-9.058962, -16.458112) "></path>
                            </g>
                        </g>
                        <g id="Group-12" transform="translate(29.580026, 27.903835)">
                            <g id="Group-10" transform="translate(4.178285, 7.862102)">
                                <ellipse id="Oval-30" stroke="#E5AB74" stroke-width="1.9125" fill="#FFFFFF" cx="9.27016251" cy="9.71617131" rx="8.16975842" ry="8.53100062"></ellipse>
                                <path d="M6.49268169,11.7294131 C7.15304892,8.52177294 11.8657176,8.46854691 12.7221743,11.7294131" id="Path-18" stroke="#767676" stroke-width="1.6575" stroke-linecap="round"></path>
                            </g>
                            <g id="Group-11" transform="translate(31.242638, 7.862102)">
                                <ellipse id="Oval-30-Copy" stroke="#E5AB74" stroke-width="1.9125" fill="#FFFFFF" cx="9.18705195" cy="9.71617131" rx="8.16975842" ry="8.53100062"></ellipse>
                                <path d="M6.40957113,11.7294131 C7.06993836,8.52177294 11.782607,8.46854691 12.6390638,11.7294131" id="Path-18-Copy" stroke="#767676" stroke-width="1.6575" stroke-linecap="round"></path>
                            </g>
                            <g id="Group-5" transform="translate(20.987324, 27.065523)">
                                <path d="M2.74695906,5.07944764 C4.26406265,5.07944764 5.49391811,3.51597215 5.49391811,1.58732739 C5.49391811,-0.341317372 4.26406265,0.831873068 2.74695906,0.831873068 C1.22985546,0.831873068 0.438962491,1.4560763 0.438962491,3.38472106 C0.438962491,5.31336582 1.22985546,5.07944764 2.74695906,5.07944764 Z" id="Oval-2" fill="#FFFFFF"></path>
                                <path d="M8.9006983,5.07944764 C10.4178019,5.07944764 11.6476574,3.51597215 11.6476574,1.58732739 C11.6476574,-0.341317372 10.4178019,0.831873068 8.9006983,0.831873068 C7.3835947,0.831873068 6.59270173,1.4560763 6.59270173,3.38472106 C6.59270173,5.31336582 7.3835947,5.07944764 8.9006983,5.07944764 Z" id="Oval-2-Copy" fill="#FFFFFF" transform="translate(9.120180, 2.783409) scale(-1, 1) translate(-9.120180, -2.783409) "></path>
                                <path d="M6.17105701,3.59446871 C7.57714682,5.67913324 11.8639553,5.03300599 11.6744343,0.75733853" id="Path-19-Copy" stroke="#E08063" stroke-width="1.49175" stroke-linecap="round" transform="translate(8.925791, 2.749791) scale(-1, 1) translate(-8.925791, -2.749791) "></path>
                                <path d="M0.457382178,3.59446871 C1.86347198,5.67913324 6.15028048,5.03300599 5.96075951,0.75733853" id="Path-19" stroke="#E08063" stroke-width="1.49175" stroke-linecap="round"></path>
                                <path d="M3.80911656,0.494986989 L8.11341825,0.494986989" id="Line-2" stroke="#78625B" stroke-width="1.49175" stroke-linecap="round"></path>
                            </g>
                            <g id="Group-6" transform="translate(0.061044, 31.190415)" stroke="#FFFFFF" stroke-linecap="round" stroke-width="1.46624997">
                                <path d="M14.1303147,0.17739427 C12.430715,0.17739427 7.74602497,0.17739427 0.0762444299,0.17739427" id="Path-2"></path>
                                <path d="M14.0965909,4.30583172 C13.068771,4.30583172 10.2357406,4.30583172 5.59749953,4.30583172" id="Path-2-Copy" transform="translate(9.847045, 4.556056) rotate(-12.000000) translate(-9.847045, -4.556056) "></path>
                            </g>
                            <g id="Group-6-Copy-2" transform="translate(11.676176, 3.037542) rotate(96.000000) translate(-11.676176, -3.037542) translate(9.176176, -0.215373)" stroke="#FFFFFF" stroke-linecap="round" stroke-width="1.46624997">
                                <path d="M3.97764876,0.144132844 C3.28590907,0.144132844 1.98785221,0.144132844 0.0834781885,0.144132844" id="Path-2"></path>
                                <path d="M4.90322111,5.11817139 C4.42357184,5.11817139 3.10149097,5.11817139 0.93697848,5.11817139" id="Path-2-Copy" transform="translate(2.920100, 5.368396) rotate(-15.000000) translate(-2.920100, -5.368396) "></path>
                            </g>
                            <g id="Group-6-Copy-3" transform="translate(41.081685, 3.056776) scale(-1, 1) rotate(96.000000) translate(-41.081685, -3.056776) translate(38.581685, -0.196139)" stroke="#FFFFFF" stroke-linecap="round" stroke-width="1.46624997">
                                <path d="M3.97764876,0.144132844 C3.28590907,0.144132844 1.98785221,0.144132844 0.0834781885,0.144132844" id="Path-2"></path>
                                <path d="M4.90322111,5.11817139 C4.42357184,5.11817139 3.10149097,5.11817139 0.93697848,5.11817139" id="Path-2-Copy" transform="translate(2.920100, 5.368396) rotate(-15.000000) translate(-2.920100, -5.368396) "></path>
                            </g>
                            <g id="Group-6-Copy" transform="translate(47.360660, 34.193106) scale(-1, 1) translate(-47.360660, -34.193106) translate(40.110660, 31.190415)" stroke="#FFFFFF" stroke-linecap="round" stroke-width="1.46624997">
                                <path d="M14.1303147,0.17739427 C12.430715,0.17739427 7.74602497,0.17739427 0.0762444299,0.17739427" id="Path-2"></path>
                                <path d="M14.0965909,4.30583172 C13.068771,4.30583172 10.2357406,4.30583172 5.59749953,4.30583172" id="Path-2-Copy" transform="translate(9.847045, 4.556056) rotate(-12.000000) translate(-9.847045, -4.556056) "></path>
                            </g>
                        </g>
                    </g>
                    <polygon id="side" fill="#DEEAF4" points="29.3961021 33.5850869 148.172914 62.3943777 148.172914 184.618586 29.3961021 150.4952"></polygon>
                    <g id="side" opacity="0.133718297" style="mix-blend-mode: multiply;">
                        <use fill="black" fill-opacity="1" filter="url(#filter-11)" xlink:href="#path-10"></use>
                        <use fill="url(#linearGradient-9)" fill-rule="evenodd" xlink:href="#path-10"></use>
                    </g>
                    <polygon id="side" fill="#D2DEE9" transform="translate(193.283385, 107.507608) scale(-1, 1) translate(-193.283385, -107.507608) " points="147.994169 30.3966293 238.5726 62.3943777 238.5726 184.618586 149.007828 147.306742"></polygon>
                    <g id="side" opacity="0.133718297" style="mix-blend-mode: multiply;" transform="translate(193.283385, 107.507608) scale(-1, 1) translate(-193.283385, -107.507608) ">
                        <use fill="black" fill-opacity="1" filter="url(#filter-13)" xlink:href="#path-12"></use>
                        <use fill="url(#linearGradient-9)" fill-rule="evenodd" xlink:href="#path-12"></use>
                    </g>
                    <polygon id="lid" fill="url(#linearGradient-14)" transform="translate(208.806926, 72.423033) scale(-1, 1) translate(-208.806926, -72.423033) " points="179.417522 30.3105726 147.750886 76.5971852 239.415849 114.535493 269.862966 61.5789526"></polygon>
                    <g id="scratches" opacity="0.600000024" transform="translate(161.809962, 133.630214) rotate(1.000000) translate(-161.809962, -133.630214) translate(152.559962, 97.347703)" fill="#ACBBCB">
                        <polygon id="Path-4" transform="translate(4.975150, 36.236004) rotate(3.000000) translate(-4.975150, -36.236004) " points="2.89120708 10.9673887 2.83578451 16.2912074 2.35736104 20.101647 2.83578451 23.3119715 3.81896079 28.1210493 5.97218749 72.1100695 5.97218749 58.3785036 7.59293963 57.0739636 5.97218749 51.1829486 4.6563624 28.1210493 4.05375006 22.3356196 4.6563624 20.101647 3.81896079 16.2912074 2.83578451 0.36193831"></polygon>
                        <polygon id="Path-4-Copy" transform="translate(10.553489, 39.387948) scale(-1, -1) rotate(6.000000) translate(-10.553489, -39.387948) " points="8.54662812 29.4875462 9.5298044 35.3597639 11.6830311 57.1954828 11.6830311 50.3792679 12.5603498 52.4902397 11.6830311 46.8074649 10.367206 35.3597639 10.367206 31.3790111 9.5298044 29.4875462 8.54662812 21.580413"></polygon>
                        <polygon id="Path-4-Copy-2" transform="translate(15.343596, 39.433830) scale(1, -1) rotate(3.000000) translate(-15.343596, -39.433830) " points="14.0439148 16.4607679 14.6515475 21.260935 14.3477312 24.7328541 14.6515475 27.6579726 15.2759003 32.0398106 16.6432779 72.1208342 16.6432779 59.6091843 16.5591776 55.5749509 16.6432779 53.0528844 15.8076809 32.0398106 15.73711 26.9112031 15.8076809 24.7328541 15.2759003 21.260935 14.6515475 6.74682658"></polygon>
                    </g>
                    <g id="lid" transform="translate(0.000000, 32.522268)">
                        <mask id="mask-17" fill="white">
                            <use xlink:href="#path-16"></use>
                        </mask>
                        <use id="Mask" fill="url(#linearGradient-15)" xlink:href="#path-16"></use>
                        <g id="Group-3-Copy" opacity="0.400000006" mask="url(#mask-17)" fill="#ACBBCB">
                            <g transform="translate(68.307701, 12.834126) scale(-1, -1) rotate(33.000000) translate(-68.307701, -12.834126) translate(59.057701, -23.448385)">
                                <polygon id="Path-4" transform="translate(4.975150, 36.236004) rotate(3.000000) translate(-4.975150, -36.236004) " points="2.89120708 10.9673887 2.83578451 16.2912074 2.35736104 20.101647 2.83578451 23.3119715 3.81896079 28.1210493 5.97218749 72.1100695 5.97218749 58.3785036 7.59293963 57.0739636 5.97218749 51.1829486 4.6563624 28.1210493 4.05375006 22.3356196 4.6563624 20.101647 3.81896079 16.2912074 2.83578451 0.36193831"></polygon>
                                <polygon id="Path-4-Copy" transform="translate(10.553489, 39.387948) scale(-1, -1) rotate(6.000000) translate(-10.553489, -39.387948) " points="8.54662812 29.4875462 9.5298044 35.3597639 11.6830311 57.1954828 11.6830311 50.3792679 12.5603498 52.4902397 11.6830311 46.8074649 10.367206 35.3597639 10.367206 31.3790111 9.5298044 29.4875462 8.54662812 21.580413"></polygon>
                                <polygon id="Path-4-Copy-2" transform="translate(15.343596, 39.433830) scale(1, -1) rotate(3.000000) translate(-15.343596, -39.433830) " points="14.0439148 16.4607679 14.6515475 21.260935 14.3477312 24.7328541 14.6515475 27.6579726 15.2759003 32.0398106 16.6432779 72.1208342 16.6432779 59.6091843 16.5591776 55.5749509 16.6432779 53.0528844 15.8076809 32.0398106 15.73711 26.9112031 15.8076809 24.7328541 15.2759003 21.260935 14.6515475 6.74682658"></polygon>
                            </g>
                        </g>
                    </g>
                </g>
                <g id="yellow" transform="translate(8.500000, 72.565022)">
                    <path d="M51.7265946,3.95209362 C53.6661398,5.86148189 55.3194898,7.7129827 56.6866446,9.50659604 C59.532698,13.2404231 60.3824461,18.4013797 60.1845564,18.5317239 C59.1049571,19.2428241 52.9323871,15.140731 51.7265946,11.8090173 C51.0037215,9.81165375 51.0037215,7.19267918 51.7265946,3.95209362 Z" id="Path-12" fill="#FFB883"></path>
                    <g id="Path-9">
                        <use fill="black" fill-opacity="1" filter="url(#filter-20)" xlink:href="#path-19"></use>
                        <use fill="url(#linearGradient-18)" fill-rule="evenodd" xlink:href="#path-19"></use>
                    </g>
                </g>
                <g id="green" transform="translate(584.216094, 28.135523) rotate(42.000000) translate(-584.216094, -28.135523) translate(562.216094, 10.619828)">
                    <path d="M37.604169,2.87309067 C39.0141784,4.26117662 40.2161298,5.60717958 41.2100232,6.91109954 C43.2790454,9.6255149 43.8967948,13.3774241 43.752933,13.4721816 C42.9680866,13.9891368 38.4807553,11.0069996 37.604169,8.5849124 C37.0786552,7.13287021 37.0786552,5.22892964 37.604169,2.87309067 Z" id="Path-12" fill="#50F24F"></path>
                    <g id="Path-9">
                        <use fill="black" fill-opacity="1" filter="url(#filter-23)" xlink:href="#path-22"></use>
                        <use fill="url(#linearGradient-21)" fill-rule="evenodd" xlink:href="#path-22"></use>
                    </g>
                </g>
                <g id="pink-" transform="translate(466.671499, 287.674491) rotate(43.000000) translate(-466.671499, -287.674491) translate(419.671499, 248.174491)">
                    <g id="Path-10" transform="translate(47.389579, 39.539899) rotate(-14.000000) translate(-47.389579, -39.539899) ">
                        <use fill="black" fill-opacity="1" filter="url(#filter-26)" xlink:href="#path-25"></use>
                        <use fill="url(#linearGradient-24)" fill-rule="evenodd" xlink:href="#path-25"></use>
                    </g>
                    <path d="M65.7724427,56.4919848 C68.7495868,59.4118234 65.9920721,67.2039301 60.1416732,67.0674621 C66.3571114,67.1510518 69.7097414,64.8902285 72.1244908,62.6219402 C74.5392401,60.3536519 85.8758359,49.8243981 84.4860797,21.2640937 C84.6679905,45.4084711 78.7351843,57.1950909 65.7724427,56.4919848 Z" id="Path-11" fill="#F46DA0"></path>
                </g>
            </g>
        </g>
    </g>
</svg>