<svg width="18" height="18" xmlns="http://www.w3.org/2000/svg"><path d="M4.5 12.462v.738h9v-.738c0-.468-.276-.894-.828-1.278-.468-.324-1.08-.582-1.836-.774-.672-.18-1.284-.27-1.836-.27s-1.164.09-1.836.27c-.756.192-1.368.45-1.836.774-.552.384-.828.81-.828 1.278zm6.75-6.012a2.17 2.17 0 0 0-.306-1.116 2.283 2.283 0 0 0-.828-.828A2.17 2.17 0 0 0 9 4.2a2.17 2.17 0 0 0-1.116.306c-.348.204-.624.48-.828.828A2.17 2.17 0 0 0 6.75 6.45c0 .396.102.768.306 1.116.204.348.48.624.828.828.348.204.72.306 1.116.306a2.17 2.17 0 0 0 1.116-.306c.348-.204.624-.48.828-.828a2.17 2.17 0 0 0 .306-1.116zm-9-2.988c0-.408.147-.762.441-1.062.294-.3.651-.45 1.071-.45h10.476c.408 0 .762.15 1.062.45.3.3.45.654.45 1.062v10.476c0 .408-.15.762-.45 1.062-.3.3-.654.45-1.062.45H3.762c-.42 0-.777-.15-1.071-.45a1.467 1.467 0 0 1-.441-1.062V3.462z"/></svg>