<?xml version="1.0" encoding="UTF-8"?>
<svg width="18px" height="18px" viewBox="0 0 18 18" version="1.1" xmlns="http://www.w3.org/2000/svg" xmlns:xlink="http://www.w3.org/1999/xlink">
    <!-- Generator: Sketch 49 (51002) - http://www.bohemiancoding.com/sketch -->
    <title>icon-account copy</title>
    <desc>Created with Sketch.</desc>
    <defs></defs>
    <g id="icon-account-copy" stroke="none" stroke-width="1" fill="none" fill-rule="evenodd">
        <path d="M4.5,12.462 L4.5,13.2 L13.5,13.2 L13.5,12.462 C13.5,11.9939977 13.2240028,11.5680019 12.672,11.184 C12.2039977,10.8599984 11.5920038,10.602001 10.836,10.41 C10.1639966,10.2299991 9.55200276,10.14 9,10.14 C8.44799724,10.14 7.83600336,10.2299991 7.164,10.41 C6.40799622,10.602001 5.79600234,10.8599984 5.328,11.184 C4.77599724,11.5680019 4.5,11.9939977 4.5,12.462 Z M11.25,6.45 C11.25,6.05399802 11.148001,5.68200174 10.944,5.334 C10.739999,4.98599826 10.4640017,4.71000102 10.116,4.506 C9.76799826,4.30199898 9.39600198,4.2 9,4.2 C8.60399802,4.2 8.23200174,4.30199898 7.884,4.506 C7.53599826,4.71000102 7.26000102,4.98599826 7.056,5.334 C6.85199898,5.68200174 6.75,6.05399802 6.75,6.45 C6.75,6.84600198 6.85199898,7.21799826 7.056,7.566 C7.26000102,7.91400174 7.53599826,8.18999898 7.884,8.394 C8.23200174,8.59800102 8.60399802,8.7 9,8.7 C9.39600198,8.7 9.76799826,8.59800102 10.116,8.394 C10.4640017,8.18999898 10.739999,7.91400174 10.944,7.566 C11.148001,7.21799826 11.25,6.84600198 11.25,6.45 Z M2.25,3.462 C2.25,3.05399796 2.39699853,2.7000015 2.691,2.4 C2.98500147,2.0999985 3.3419979,1.95 3.762,1.95 L14.238,1.95 C14.646002,1.95 14.9999985,2.0999985 15.3,2.4 C15.6000015,2.7000015 15.75,3.05399796 15.75,3.462 L15.75,13.938 C15.75,14.346002 15.6000015,14.6999985 15.3,15 C14.9999985,15.3000015 14.646002,15.45 14.238,15.45 L3.762,15.45 C3.3419979,15.45 2.98500147,15.3000015 2.691,15 C2.39699853,14.6999985 2.25,14.346002 2.25,13.938 L2.25,3.462 Z" id="account_box---material" fill="#FFFFFF"></path>
    </g>
</svg>