<svg width="549" height="593" xmlns="http://www.w3.org/2000/svg"><g><path d="M252 375v47h-47V236h70.5c38.384 0 69.5 31.116 69.5 69.5S313.884 375 275.5 375H252zm0-93v47h23.5c12.979 0 23.5-10.521 23.5-23.5S288.479 282 275.5 282H252zM112.713 26h265.674L484 132.516V189h-46.045v-23.605h-93.027V72.289h-232.99V189H65l.713-116.288C65.872 46.867 86.868 26 112.713 26zM65 468h46.658v23.64h326.143V468H484v23c0 25.957-21.043 47-47 47H112c-25.957 0-47-21.043-47-47v-23zM135 422v-47H89v47H42V258c0-12.15 9.85-22 22-22h96c12.15 0 22 9.85 22 22v164h-47zM89 282v47h46v-47H89zM415 286.303L450.572 236h57.219l-65.242 93 65.242 93h-57.219L415 370.627V422h-47V236h47v50.303z"/></g></svg>