<?xml version="1.0" encoding="UTF-8"?>
<svg width="18px" height="18px" viewBox="0 0 18 18" version="1.1" xmlns="http://www.w3.org/2000/svg" xmlns:xlink="http://www.w3.org/1999/xlink">
    <!-- Generator: Sketch 49 (51002) - http://www.bohemiancoding.com/sketch -->
    <title>icon-assessment copy</title>
    <desc>Created with Sketch.</desc>
    <defs></defs>
    <g id="icon-assessment-copy" stroke="none" stroke-width="1" fill="none" fill-rule="evenodd">
        <path d="M12.762,12.462 L12.762,9.438 L11.25,9.438 L11.25,12.462 L12.762,12.462 Z M9.738,12.462 L9.738,4.938 L8.262,4.938 L8.262,12.462 L9.738,12.462 Z M6.75,12.462 L6.75,7.188 L5.238,7.188 L5.238,12.462 L6.75,12.462 Z M14.238,1.95 C14.646002,1.95 14.9999985,2.0999985 15.3,2.4 C15.6000015,2.7000015 15.75,3.05399796 15.75,3.462 L15.75,13.938 C15.75,14.346002 15.6000015,14.6999985 15.3,15 C14.9999985,15.3000015 14.646002,15.45 14.238,15.45 L3.762,15.45 C3.35399796,15.45 3.0000015,15.3000015 2.7,15 C2.3999985,14.6999985 2.25,14.346002 2.25,13.938 L2.25,3.462 C2.25,3.05399796 2.3999985,2.7000015 2.7,2.4 C3.0000015,2.0999985 3.35399796,1.95 3.762,1.95 L14.238,1.95 Z" id="assessment---material" fill="#FFFFFF"></path>
    </g>
</svg>