<?xml version="1.0" standalone="no"?><!DOCTYPE svg PUBLIC "-//W3C//DTD SVG 1.1//EN" "http://www.w3.org/Graphics/SVG/1.1/DTD/svg11.dtd"><svg t="1521972922965" class="icon" style="" viewBox="0 0 1340 1024" version="1.1" xmlns="http://www.w3.org/2000/svg" p-id="9889" xmlns:xlink="http://www.w3.org/1999/xlink" width="23.5546875" height="18"><defs><style type="text/css"></style></defs><path d="M1142.153846 1024 196.923077 1024c-108.583385 0-196.923077-88.339692-196.923077-196.923077L0 196.923077c0-108.583385 88.339692-196.923077 196.923077-196.923077l945.230769 0c108.583385 0 196.923077 88.339692 196.923077 196.923077l0 630.153846C1339.076923 935.660308 1250.737231 1024 1142.153846 1024zM196.923077 78.769231C131.780923 78.769231 78.769231 131.780923 78.769231 196.923077l0 630.153846c0 65.142154 53.011692 118.153846 118.153846 118.153846l945.230769 0c65.142154 0 118.153846-53.011692 118.153846-118.153846L1260.307692 196.923077c0-65.142154-53.011692-118.153846-118.153846-118.153846L196.923077 78.769231z" p-id="9890" fill="#bfcbd9"></path><path d="M630.153846 41.826462l78.769231 0 0 940.307692-78.769231 0 0-940.307692Z" p-id="9891" fill="#bfcbd9"></path></svg>