<?xml version="1.0" encoding="UTF-8"?>
<svg width="18px" height="18px" viewBox="0 0 18 18" version="1.1" xmlns="http://www.w3.org/2000/svg" xmlns:xlink="http://www.w3.org/1999/xlink">
    <!-- Generator: Sketch 49 (51002) - http://www.bohemiancoding.com/sketch -->
    <title>icon-car copy</title>
    <desc>Created with Sketch.</desc>
    <defs></defs>
    <g id="icon-car-copy" stroke="none" stroke-width="1" fill="none" fill-rule="evenodd">
        <path d="M3.762,7.962 L14.238,7.962 L13.122,4.578 L4.896,4.578 L3.762,7.962 Z M13.122,11.688 C13.4340016,11.688 13.6979989,11.5800011 13.914,11.364 C14.1300011,11.1479989 14.238,10.8780016 14.238,10.554 C14.238,10.2299984 14.1300011,9.96300105 13.914,9.753 C13.6979989,9.54299895 13.4340016,9.438 13.122,9.438 C12.8099984,9.438 12.5430011,9.54599892 12.321,9.762 C12.0989989,9.97800108 11.988,10.2419984 11.988,10.554 C11.988,10.8660016 12.0959989,11.1329989 12.312,11.355 C12.5280011,11.5770011 12.7979984,11.688 13.122,11.688 Z M4.896,11.688 C5.20800156,11.688 5.47199892,11.5800011 5.688,11.364 C5.90400108,11.1479989 6.012,10.8780016 6.012,10.554 C6.012,10.2299984 5.90400108,9.96300105 5.688,9.753 C5.47199892,9.54299895 5.20800156,9.438 4.896,9.438 C4.58399844,9.438 4.31700111,9.54599892 4.095,9.762 C3.87299889,9.97800108 3.762,10.2419984 3.762,10.554 C3.762,10.8660016 3.86999892,11.1329989 4.086,11.355 C4.30200108,11.5770011 4.57199838,11.688 4.896,11.688 Z M14.202,4.2 L15.75,8.7 L15.75,14.712 C15.75,14.916001 15.6780007,15.0899993 15.534,15.234 C15.3899993,15.3780007 15.216001,15.45 15.012,15.45 L14.238,15.45 C14.033999,15.45 13.8600007,15.3780007 13.716,15.234 C13.5719993,15.0899993 13.5,14.916001 13.5,14.712 L13.5,13.938 L4.5,13.938 L4.5,14.712 C4.5,14.916001 4.42800072,15.0899993 4.284,15.234 C4.13999928,15.3780007 3.96600102,15.45 3.762,15.45 L2.988,15.45 C2.78399898,15.45 2.61000072,15.3780007 2.466,15.234 C2.32199928,15.0899993 2.25,14.916001 2.25,14.712 L2.25,8.7 L3.798,4.2 C3.87000036,3.97199886 4.00799898,3.79200066 4.212,3.66 C4.41600102,3.52799934 4.64399874,3.462 4.896,3.462 L13.122,3.462 C13.3740013,3.462 13.598999,3.52799934 13.797,3.66 C13.995001,3.79200066 14.1299996,3.97199886 14.202,4.2 Z" id="directions_car---material" fill="#FFFFFF"></path>
    </g>
</svg>