<?xml version="1.0" standalone="no"?><!DOCTYPE svg PUBLIC "-//W3C//DTD SVG 1.1//EN" "http://www.w3.org/Graphics/SVG/1.1/DTD/svg11.dtd"><svg t="1535361816184" class="icon" style="" viewBox="0 0 1024 1024" version="1.1" xmlns="http://www.w3.org/2000/svg" p-id="12463" xmlns:xlink="http://www.w3.org/1999/xlink" width="200" height="200"><defs><style type="text/css"></style></defs><path d="M512 0a512 512 0 1 0 512 512 512 512 0 0 0-512-512z m203.52 640A55.68 55.68 0 1 1 640 715.52l-128-128-128 128A55.68 55.68 0 1 1 308.48 640l128-128-128-128A55.68 55.68 0 1 1 384 308.48l128 128 128-128A55.68 55.68 0 1 1 715.52 384l-128 128z" fill="" p-id="12464"></path></svg>