<?xml version="1.0" standalone="no"?><!DOCTYPE svg PUBLIC "-//W3C//DTD SVG 1.1//EN" "http://www.w3.org/Graphics/SVG/1.1/DTD/svg11.dtd"><svg t="1535361538373" class="icon" style="" viewBox="0 0 1024 1024" version="1.1" xmlns="http://www.w3.org/2000/svg" p-id="10650" xmlns:xlink="http://www.w3.org/1999/xlink" width="200" height="200"><defs><style type="text/css"></style></defs><path d="M786.7392 333.42464 608.17408 512 786.7392 690.57536c26.56256 26.56256 26.56256 69.61152 0 96.17408-13.27104 13.27104-30.6688 19.9168-48.06656 19.9168-17.408 0-34.80576-6.63552-48.0768-19.9168L512 608.16384l-178.5856 178.5856c-13.27104 13.27104-30.6688 19.9168-48.0768 19.9168-17.39776 0-34.78528-6.63552-48.06656-19.9168-26.56256-26.55232-26.56256-69.60128 0-96.17408L415.82592 512 237.2608 333.42464c-26.56256-26.56256-26.56256-69.61152 0-96.17408 26.55232-26.54208 69.5808-26.54208 96.14336 0L512 415.83616l178.5856-178.5856c26.56256-26.54208 69.59104-26.54208 96.14336 0C813.30176 263.81312 813.30176 306.86208 786.7392 333.42464z" p-id="10651"></path></svg>