<?xml version="1.0" encoding="UTF-8"?>
<svg width="20px" height="20px" viewBox="0 0 20 20" version="1.1" xmlns="http://www.w3.org/2000/svg" xmlns:xlink="http://www.w3.org/1999/xlink">
    <!-- Generator: Sketch 49.1 (51147) - http://www.bohemiancoding.com/sketch -->
    <title>icon-del</title>
    <desc>Created with Sketch.</desc>
    <defs></defs>
    <g id="icon-del" stroke="none" stroke-width="1" fill="none" fill-rule="evenodd">
        <path d="M10,16.68 C11.200006,16.68 12.3199948,16.3733364 13.36,15.76 C14.3733384,15.1733304 15.1733304,14.3733384 15.76,13.36 C16.3733364,12.3199948 16.68,11.200006 16.68,10 C16.68,8.799994 16.3733364,7.6800052 15.76,6.64 C15.1733304,5.6266616 14.3733384,4.8266696 13.36,4.24 C12.3199948,3.6266636 11.200006,3.32 10,3.32 C8.799994,3.32 7.6800052,3.6266636 6.64,4.24 C5.6266616,4.8266696 4.8266696,5.6266616 4.24,6.64 C3.6266636,7.6800052 3.32,8.799994 3.32,10 C3.32,11.200006 3.6266636,12.3199948 4.24,13.36 C4.8266696,14.3733384 5.6266616,15.1733304 6.64,15.76 C7.6800052,16.3733364 8.799994,16.68 10,16.68 Z M10,1.68 C11.5200076,1.68 12.9266602,2.0599962 14.22,2.82 C15.4733396,3.5400036 16.4599964,4.5266604 17.18,5.78 C17.9400038,7.0733398 18.32,8.4799924 18.32,10 C18.32,11.5200076 17.9400038,12.9266602 17.18,14.22 C16.4599964,15.4733396 15.4733396,16.4599964 14.22,17.18 C12.9266602,17.9400038 11.5200076,18.32 10,18.32 C8.4799924,18.32 7.0733398,17.9400038 5.78,17.18 C4.5266604,16.446663 3.5400036,15.4533396 2.82,14.2 C2.0599962,12.9066602 1.68,11.5066742 1.68,10 C1.68,8.4933258 2.0599962,7.0933398 2.82,5.8 C3.553337,4.5466604 4.5466604,3.553337 5.8,2.82 C7.0933398,2.0599962 8.4933258,1.68 10,1.68 Z M5.82,9.18 L14.18,9.18 L14.18,10.82 L5.82,10.82 L5.82,9.18 Z" id="remove_circle_outline---material" fill="#F56C6C"></path>
    </g>
</svg>