<?xml version="1.0" encoding="UTF-8"?>
<svg width="18px" height="18px" viewBox="0 0 18 18" version="1.1" xmlns="http://www.w3.org/2000/svg" xmlns:xlink="http://www.w3.org/1999/xlink">
    <!-- Generator: Sketch 49 (51002) - http://www.bohemiancoding.com/sketch -->
    <title>icon-driver copy</title>
    <desc>Created with Sketch.</desc>
    <defs></defs>
    <g id="icon-driver-copy" stroke="none" stroke-width="1" fill="none" fill-rule="evenodd">
        <path d="M11.25,8.7 C11.25,9.09600198 11.148001,9.46799826 10.944,9.816 C10.739999,10.1640017 10.4640017,10.439999 10.116,10.644 C9.76799826,10.848001 9.39600198,10.95 9,10.95 C8.60399802,10.95 8.23200174,10.848001 7.884,10.644 C7.53599826,10.439999 7.26000102,10.1640017 7.056,9.816 C6.85199898,9.46799826 6.75,9.09600198 6.75,8.7 C6.75,8.30399802 6.85199898,7.93200174 7.056,7.584 C7.26000102,7.23599826 7.53599826,6.96000102 7.884,6.756 C8.23200174,6.55199898 8.60399802,6.45 9,6.45 C9.39600198,6.45 9.76799826,6.55199898 10.116,6.756 C10.4640017,6.96000102 10.739999,7.23599826 10.944,7.584 C11.148001,7.93200174 11.25,8.30399802 11.25,8.7 Z M9,14.712 C10.0800054,14.712 11.0879953,14.4360028 12.024,13.884 C12.9360046,13.3559974 13.6559974,12.6360046 14.184,11.724 C14.7360028,10.7879953 15.012,9.7800054 15.012,8.7 C15.012,7.6199946 14.7360028,6.61200468 14.184,5.676 C13.6559974,4.76399544 12.9360046,4.04400264 12.024,3.516 C11.0879953,2.96399724 10.0800054,2.688 9,2.688 C7.9199946,2.688 6.91200468,2.96399724 5.976,3.516 C5.06399544,4.04400264 4.34400264,4.76399544 3.816,5.676 C3.26399724,6.61200468 2.988,7.6199946 2.988,8.7 C2.988,9.7800054 3.26399724,10.7879953 3.816,11.724 C4.34400264,12.6360046 5.06399544,13.3559974 5.976,13.884 C6.91200468,14.4360028 7.9199946,14.712 9,14.712 Z M9,1.212 C10.3680068,1.212 11.6339942,1.55399658 12.798,2.238 C13.9260056,2.88600324 14.8139968,3.77399436 15.462,4.902 C16.1460034,6.06600582 16.488,7.33199316 16.488,8.7 C16.488,10.0680068 16.1460034,11.3339942 15.462,12.498 C14.8139968,13.6260056 13.9260056,14.5139968 12.798,15.162 C11.6339942,15.8460034 10.3680068,16.188 9,16.188 C7.63199316,16.188 6.36600582,15.8460034 5.202,15.162 C4.07399436,14.5019967 3.18600324,13.6080056 2.538,12.48 C1.85399658,11.3159942 1.512,10.0560068 1.512,8.7 C1.512,7.34399322 1.85399658,6.08400582 2.538,4.92 C3.1980033,3.79199436 4.09199436,2.8980033 5.22,2.238 C6.38400582,1.55399658 7.64399322,1.212 9,1.212 Z" id="undefined---material" fill="#FFFFFF"></path>
    </g>
</svg>