<?xml version="1.0" encoding="UTF-8"?>
<svg width="18px" height="18px" viewBox="0 0 18 18" version="1.1" xmlns="http://www.w3.org/2000/svg" xmlns:xlink="http://www.w3.org/1999/xlink">
    <!-- Generator: Sketch 49 (51002) - http://www.bohemiancoding.com/sketch -->
    <title>icon-email copy</title>
    <desc>Created with Sketch.</desc>
    <defs></defs>
    <g id="icon-email-copy" stroke="none" stroke-width="1" fill="none" fill-rule="evenodd">
        <path d="M15.012,5.712 L15.012,4.2 L9,7.962 L2.988,4.2 L2.988,5.712 L9,9.438 L15.012,5.712 Z M15.012,2.688 C15.420002,2.688 15.7679986,2.8379985 16.056,3.138 C16.3440014,3.4380015 16.488,3.79199796 16.488,4.2 L16.488,13.2 C16.488,13.608002 16.3440014,13.9619985 16.056,14.262 C15.7679986,14.5620015 15.420002,14.712 15.012,14.712 L2.988,14.712 C2.57999796,14.712 2.23200144,14.5620015 1.944,14.262 C1.65599856,13.9619985 1.512,13.608002 1.512,13.2 L1.512,4.2 C1.512,3.79199796 1.65599856,3.4380015 1.944,3.138 C2.23200144,2.8379985 2.57999796,2.688 2.988,2.688 L15.012,2.688 Z" id="email---material" fill="#FFFFFF"></path>
    </g>
</svg>