<?xml version="1.0" encoding="UTF-8"?>
<svg width="872px" height="747px" viewBox="0 0 872 747" version="1.1" xmlns="http://www.w3.org/2000/svg" xmlns:xlink="http://www.w3.org/1999/xlink">
    <!-- Generator: Sketch 50.2 (55047) - http://www.bohemiancoding.com/sketch -->
    <title>Artboard Copy</title>
    <desc>Created with Sketch.</desc>
    <defs></defs>
    <g id="Artboard-Copy" stroke="none" stroke-width="1" fill="none" fill-rule="evenodd">
        <path d="M435.837978,41.477518 C238.81977,41.477518 74.9835746,184.574954 41.8015608,373.297659 L0.324042783,373.297659 C35.5799331,161.762319 216.007135,0 435.837978,0 C655.668821,0 836.096023,161.762319 871.351913,373.297659 L829.874395,373.297659 C796.692382,184.574954 632.856187,41.477518 435.837978,41.477518 Z M290.666667,373.297659 C290.666667,292.416499 354.956819,228.126347 435.837978,228.126347 C516.719138,228.126347 581.00929,292.416499 581.00929,373.297659 C581.00929,454.178818 516.719138,518.46897 435.837978,518.46897 C354.956819,518.46897 290.666667,454.178818 290.666667,373.297659 Z M539.531773,373.297659 C539.531773,315.229134 493.906503,269.603864 435.837978,269.603864 C377.769454,269.603864 332.144184,315.229134 332.144184,373.297659 C332.144184,431.366184 377.769453,476.991453 435.837978,476.991453 C493.906503,476.991453 539.531773,431.366183 539.531773,373.297659 Z M435.837978,705.1178 C632.856187,705.1178 796.692382,562.020364 829.874395,373.297659 L871.351913,373.297659 C836.096023,584.832999 655.668821,746.595318 435.837978,746.595318 C216.007135,746.595318 35.5799331,584.832999 0.324042783,373.297659 L41.8015608,373.297659 C74.9835746,562.020364 238.81977,705.1178 435.837978,705.1178 Z" id="Shape" fill="#889AA4" fill-rule="nonzero"></path>
    </g>
</svg>