<svg width="872" height="747" xmlns="http://www.w3.org/2000/svg"><path d="M435.838 41.478c-197.018 0-360.854 143.097-394.036 331.82H.324C35.58 161.762 216.007 0 435.838 0c219.83 0 400.258 161.762 435.514 373.298h-41.478c-33.182-188.723-197.018-331.82-394.036-331.82zm-145.171 331.82c0-80.882 64.29-145.172 145.171-145.172 80.881 0 145.171 64.29 145.171 145.172 0 80.88-64.29 145.171-145.171 145.171-80.881 0-145.171-64.29-145.171-145.171zm248.865 0c0-58.069-45.625-103.694-103.694-103.694s-103.694 45.625-103.694 103.694c0 58.068 45.625 103.693 103.694 103.693s103.694-45.625 103.694-103.693zm-103.694 331.82c197.018 0 360.854-143.098 394.036-331.82h41.478c-35.256 211.535-215.683 373.297-435.514 373.297-219.83 0-400.258-161.762-435.514-373.297h41.478c33.182 188.722 197.018 331.82 394.036 331.82z"/></svg>