<?xml version="1.0" encoding="UTF-8"?>
<svg width="18px" height="18px" viewBox="0 0 18 18" version="1.1" xmlns="http://www.w3.org/2000/svg" xmlns:xlink="http://www.w3.org/1999/xlink">
    <!-- Generator: Sketch 49 (51002) - http://www.bohemiancoding.com/sketch -->
    <title>icon-atm copy</title>
    <desc>Created with Sketch.</desc>
    <defs></defs>
    <g id="icon-atm-copy" stroke="none" stroke-width="1" fill="none" fill-rule="evenodd">
        <path d="M15.012,13.2 L15.012,4.2 L2.988,4.2 L2.988,13.2 L15.012,13.2 Z M15.012,2.688 C15.4320021,2.688 15.7829986,2.83499853 16.065,3.129 C16.3470014,3.42300147 16.488,3.7799979 16.488,4.2 L16.488,13.2 C16.488,13.6200021 16.3470014,13.9769985 16.065,14.271 C15.7829986,14.5650015 15.4320021,14.712 15.012,14.712 L2.988,14.712 C2.5679979,14.712 2.21700141,14.5650015 1.935,14.271 C1.65299859,13.9769985 1.512,13.6200021 1.512,13.2 L1.512,4.2 C1.512,3.7799979 1.65299859,3.42300147 1.935,3.129 C2.21700141,2.83499853 2.5679979,2.688 2.988,2.688 L15.012,2.688 Z M8.262,12.462 L8.262,11.688 L6.75,11.688 L6.75,10.212 L9.738,10.212 L9.738,9.438 L7.488,9.438 C7.28399898,9.438 7.11000072,9.36600072 6.966,9.222 C6.82199928,9.07799928 6.75,8.90400102 6.75,8.7 L6.75,6.45 C6.75,6.24599898 6.82199928,6.07200072 6.966,5.928 C7.11000072,5.78399928 7.28399898,5.712 7.488,5.712 L8.262,5.712 L8.262,4.938 L9.738,4.938 L9.738,5.712 L11.25,5.712 L11.25,7.188 L8.262,7.188 L8.262,7.962 L10.512,7.962 C10.716001,7.962 10.8899993,8.03399928 11.034,8.178 C11.1780007,8.32200072 11.25,8.49599898 11.25,8.7 L11.25,10.95 C11.25,11.154001 11.1780007,11.3279993 11.034,11.472 C10.8899993,11.6160007 10.716001,11.688 10.512,11.688 L9.738,11.688 L9.738,12.462 L8.262,12.462 Z" id="local_atm---material" fill="#FFFFFF"></path>
    </g>
</svg>