<svg width="18" height="18" xmlns="http://www.w3.org/2000/svg"><path d="M15.012 13.2v-9H2.988v9h12.024zm0-10.512a1.4 1.4 0 0 1 1.053.441c.282.294.423.651.423 1.071v9c0 .42-.141.777-.423 1.071a1.4 1.4 0 0 1-1.053.441H2.988a1.4 1.4 0 0 1-1.053-.441 1.49 1.49 0 0 1-.423-1.071v-9c0-.42.141-.777.423-1.071a1.4 1.4 0 0 1 1.053-.441h12.024zm-6.75 9.774v-.774H6.75v-1.476h2.988v-.774h-2.25a.711.711 0 0 1-.522-.216.711.711 0 0 1-.216-.522V6.45c0-.204.072-.378.216-.522a.711.711 0 0 1 .522-.216h.774v-.774h1.476v.774h1.512v1.476H8.262v.774h2.25c.204 0 .378.072.522.216a.711.711 0 0 1 .216.522v2.25a.711.711 0 0 1-.216.522.711.711 0 0 1-.522.216h-.774v.774H8.262z"/></svg>