<svg class="icon" viewBox="0 0 1024 1024" xmlns="http://www.w3.org/2000/svg" width="32" height="32"><defs><style/></defs><path d="M716.988 241.808c0 12.156 5.003 24.24 13.611 32.85 8.58 8.593 20.678 13.595 32.835 13.595s24.254-5.002 32.834-13.596c8.609-8.608 13.61-20.693 13.61-32.849 0-12.172-5.001-24.255-13.61-32.849-8.58-8.594-20.677-13.61-32.834-13.61s-24.255 5.015-32.835 13.61c-8.608 8.594-13.61 20.677-13.61 32.85zm0 0M593.504 164.404c0 14.586 5.99 29.098 16.314 39.407 10.324 10.325 24.837 16.33 39.408 16.33 14.6 0 29.11-6.005 39.436-16.33 10.324-10.309 16.315-24.821 16.315-39.407 0-14.6-5.99-29.097-16.315-39.421-10.325-10.31-24.837-16.33-39.436-16.33-14.57 0-29.084 6.02-39.408 16.33-10.323 10.325-16.314 24.822-16.314 39.421zm0 0M423.545 139.612c0 17.028 7.009 33.954 19.049 45.98 12.04 12.04 28.966 19.049 45.979 19.049 17.013 0 33.94-7.01 45.98-19.05 12.041-12.025 19.049-28.951 19.049-45.98s-7.009-33.94-19.049-45.98-28.967-19.048-45.98-19.048c-17.013 0-33.939 7.01-45.98 19.048-12.04 12.04-19.048 28.953-19.048 45.98zm0 0M214.12 148.903c0 21.886 9.017 43.64 24.488 59.125 15.5 15.472 37.254 24.488 59.155 24.488 21.87 0 43.624-9.016 59.096-24.488 15.5-15.487 24.488-37.24 24.488-59.125 0-21.884-8.987-43.639-24.488-59.124-15.472-15.473-37.226-24.488-59.096-24.488-21.9 0-43.653 9.015-59.155 24.488-15.471 15.485-24.488 37.24-24.488 59.124zm0 0M604.584 252.903h-.146c-1.774-.043-3.432-.262-5.147-.262-1.774 0-3.461.219-5.148.262H398.737c-1.745-.058-3.432-.262-5.119-.262-1.744 0-3.432.204-5.177.262h-3.664v.204c-74.423 4.566-133.49 66.28-133.49 141.85 0 51.011 26.99 95.653 67.356 120.794v.147l2.705 1.629s80.355 42.722-2.705 245.137h.058c-6.776 16.636-10.586 34.695-10.586 53.716 0 78.581 63.807 142.33 142.33 142.33 34.465 0 66.02-12.273 90.68-32.63v.028l.028.203C683.135 809.486 774.28 633.304 776.926 435.832c.059-1.773.262-3.49.262-5.278.001-96.423-76.892-174.815-172.604-177.651zm0 0"/></svg>