<?xml version="1.0" standalone="no"?><!DOCTYPE svg PUBLIC "-//W3C//DTD SVG 1.1//EN" "http://www.w3.org/Graphics/SVG/1.1/DTD/svg11.dtd"><svg class="icon" width="18px" height="18.00px" viewBox="0 0 1024 1024" version="1.1" xmlns="http://www.w3.org/2000/svg"><path fill="#2c3e50" d="M898.133333 341.333333c0-10.666667-10.666667-21.333333-21.333333-21.333333h-128v-8.533333C746.666667 185.6 644.266667 85.333333 520.533333 85.333333h-17.066666C379.733333 85.333333 277.333333 185.6 277.333333 311.466667v8.533333H149.333333c-10.666667 0-21.333333 8.533333-21.333333 21.333333l-19.2 518.4v2.133334c4.266667 55.466667 51.2 98.133333 106.666667 98.133333H810.666667c55.466667 0 102.4-42.666667 106.666666-98.133333v-2.133334L898.133333 341.333333zM810.666667 917.333333H215.466667c-32 0-59.733333-25.6-64-57.6L170.666667 362.666667h106.666666v128c0 12.8 8.533333 21.333333 21.333334 21.333333s21.333333-8.533333 21.333333-21.333333v-179.2C320 209.066667 403.2 128 503.466667 128h17.066666c100.266667 0 183.466667 83.2 183.466667 183.466667V490.666667c0 12.8 8.533333 21.333333 21.333333 21.333333s21.333333-8.533333 21.333334-21.333333v-128h108.8l19.2 497.066666c-2.133333 32-29.866667 57.6-64 57.6zM386.133333 362.666667h256c12.8 0 21.333333-8.533333 21.333334-21.333334s-8.533333-21.333333-21.333334-21.333333h-256c-12.8 0-21.333333 8.533333-21.333333 21.333333s8.533333 21.333333 21.333333 21.333334zM693.333333 580.266667c-10.666667-6.4-23.466667-2.133333-27.733333 8.533333l-83.2 160-121.6-164.266667c-6.4-6.4-12.8-8.533333-21.333333-8.533333-6.4 0-12.8 4.266667-17.066667 10.666667l-100.266667 192c-6.4 10.666667-2.133333 23.466667 8.533334 27.733333 4.266667 4.266667 6.4 4.266667 10.666666 4.266667 8.533333 0 14.933333-4.266667 19.2-10.666667l85.333334-162.133333 121.6 164.266666c4.266667 6.4 10.666667 8.533333 19.2 8.533334 6.4 0 12.8-4.266667 17.066666-10.666667l100.266667-189.866667c2.133333-10.666667-2.133333-23.466667-10.666667-29.866666z" /></svg>