<?xml version="1.0" standalone="no"?><!DOCTYPE svg PUBLIC "-//W3C//DTD SVG 1.1//EN" "http://www.w3.org/Graphics/SVG/1.1/DTD/svg11.dtd"><svg class="icon" width="18px" height="18.00px" viewBox="0 0 1024 1024" version="1.1" xmlns="http://www.w3.org/2000/svg"><path fill="#2c3e50" d="M898.133333 339.2c0-10.666667-10.666667-21.333333-21.333333-21.333333h-128v-8.533334C746.666667 185.6 646.4 85.333333 520.533333 85.333333h-17.066666C379.733333 85.333333 277.333333 185.6 277.333333 311.466667v8.533333H149.333333c-10.666667 0-21.333333 8.533333-21.333333 21.333333l-17.066667 518.4v2.133334c4.266667 55.466667 51.2 98.133333 106.666667 98.133333h595.2c55.466667 0 102.4-42.666667 106.666667-98.133333v-2.133334l-21.333334-520.533333zM320 311.466667C320 209.066667 403.2 128 503.466667 128h17.066666c100.266667 0 183.466667 83.2 183.466667 183.466667v8.533333H320v-8.533333z m-21.333333 198.4c-12.8 0-21.333333-8.533333-21.333334-21.333334v-106.666666c0-12.8 8.533333-21.333333 21.333334-21.333334s21.333333 8.533333 21.333333 21.333334v106.666666c0 10.666667-8.533333 21.333333-21.333333 21.333334z m403.2 96l-100.266667 189.866666c-4.266667 6.4-10.666667 10.666667-17.066667 10.666667-6.4 0-14.933333-2.133333-19.2-8.533333l-121.6-164.266667-85.333333 162.133333c-4.266667 6.4-10.666667 10.666667-19.2 10.666667-4.266667 0-6.4 0-10.666667-2.133333-10.666667-6.4-14.933333-19.2-8.533333-27.733334l100.266667-192c4.266667-6.4 10.666667-10.666667 17.066666-10.666666 6.4 0 14.933333 2.133333 19.2 8.533333l121.6 164.266667 83.2-160c6.4-10.666667 19.2-14.933333 27.733334-8.533334 14.933333 6.4 17.066667 19.2 12.8 27.733334z m44.8-117.333334c0 12.8-8.533333 21.333333-21.333334 21.333334s-21.333333-8.533333-21.333333-21.333334v-106.666666c0-12.8 8.533333-21.333333 21.333333-21.333334s21.333333 8.533333 21.333334 21.333334v106.666666z" /></svg>