<?xml version="1.0" encoding="UTF-8"?>
<svg width="24px" height="24px" viewBox="0 0 24 24" version="1.1" xmlns="http://www.w3.org/2000/svg" xmlns:xlink="http://www.w3.org/1999/xlink">
    <!-- Generator: Sketch 49 (51002) - http://www.bohemiancoding.com/sketch -->
    <title>icon-idented</title>
    <desc>Created with Sketch.</desc>
    <defs></defs>
    <g id="icon-idented" stroke="none" stroke-width="1" fill="none" fill-rule="evenodd">
        <path d="M20.5109148,4.1260889 C19.9002079,4.1260889 19.0556133,4.0772839 17.8913721,3.93086889 C14.4480249,3.49676122 11.9974012,1 11.9974012,1 C11.9974012,1 9.54677755,3.49676122 6.10343035,3.9283002 C4.93918919,4.07471521 4.09459459,4.12352021 3.48388773,4.12352021 C2.28846154,4.12352021 2,3.93857494 2,3.93857494 L2.03118503,15.8187402 C2.03118503,15.8187402 3.02650728,19.7847889 6.69074844,21.8448738 C10.3549896,23.90239 12,24 12,24 C12,24 13.6450104,23.90239 17.3092516,21.8448738 C20.9734927,19.7873576 21.968815,15.8187402 21.968815,15.8187402 L22,3.93857494 C21.9948025,3.93857494 21.706341,4.1260889 20.5109148,4.1260889 Z M20.6668399,15.6389323 C20.5810811,15.9163502 20.3419958,16.6073263 19.8768191,17.431874 C19.5155925,18.0714764 19.0919958,18.6571365 18.6190229,19.1683047 C18.039501,19.800201 17.3820166,20.3242126 16.6647609,20.7249274 C14.9677755,21.6779093 13.7619543,22.168528 13.0472973,22.412553 C12.504158,22.5974983 12.1585239,22.6719902 11.9974012,22.7002457 C11.8362786,22.6719902 11.4906445,22.5974983 10.9475052,22.412553 C10.2328482,22.168528 9.02702703,21.6779093 7.33004158,20.7249274 C6.62577963,20.32935 5.98128898,19.8181818 5.40696466,19.2016976 C4.93918919,18.6982354 4.51819127,18.1254188 4.15696466,17.4960911 C3.66839917,16.6484253 3.41632017,15.9214876 3.32796258,15.633795 L3.30197505,5.40529372 C3.36174636,5.40529372 3.42151767,5.40786241 3.48388773,5.40786241 C4.247921,5.40786241 5.18607069,5.33850793 6.26715177,5.20236766 C8.82692308,4.88128211 10.8773389,3.57639044 11.9974012,2.70303775 C13.1174636,3.57639044 15.1678794,4.88128211 17.7276507,5.20236766 C18.8087318,5.33850793 19.7468815,5.40786241 20.5109148,5.40786241 C20.5732848,5.40786241 20.6330561,5.40786241 20.6928274,5.40529372 L20.6668399,15.6389323 Z M17.1585239,8.23341523 L18.0784823,9.14272951 L11.2801455,15.8624079 L10.3601871,16.7717221 L9.44022869,15.8624079 L5.95010395,12.4126647 L6.87006237,11.5033505 L10.3601871,14.9556623 L17.1585239,8.23341523 Z" id="Shape" fill="#1989FA" fill-rule="nonzero"></path>
    </g>
</svg>