<?xml version="1.0" encoding="UTF-8"?>
<svg width="18px" height="18px" viewBox="0 0 18 18" version="1.1" xmlns="http://www.w3.org/2000/svg" xmlns:xlink="http://www.w3.org/1999/xlink">
    <!-- Generator: Sketch 49 (51002) - http://www.bohemiancoding.com/sketch -->
    <title>icon-group copy</title>
    <desc>Created with Sketch.</desc>
    <defs></defs>
    <g id="icon-group-copy" stroke="none" stroke-width="1" fill="none" fill-rule="evenodd">
        <path d="M11.988,9.438 C12.6360032,9.438 13.355996,9.53399904 14.148,9.726 C15.0240044,9.95400114 15.7379972,10.2479982 16.29,10.608 C16.9380032,11.0400022 17.262,11.5259973 17.262,12.066 L17.262,13.938 L12.762,13.938 L12.762,12.066 C12.762,11.0459949 12.2700049,10.1820035 11.286,9.474 C11.4540008,9.44999988 11.6879985,9.438 11.988,9.438 Z M6.012,9.438 C6.66000324,9.438 7.3739961,9.53399904 8.154,9.726 C9.03000438,9.95400114 9.7379973,10.2479982 10.278,10.608 C10.9260032,11.0400022 11.25,11.5259973 11.25,12.066 L11.25,13.938 L0.738,13.938 L0.738,12.066 C0.738,11.5259973 1.06199676,11.0400022 1.71,10.608 C2.26200276,10.2479982 2.97599562,9.95400114 3.852,9.726 C4.64400396,9.53399904 5.36399676,9.438 6.012,9.438 Z M6.012,7.962 C5.61599802,7.962 5.24400174,7.86000102 4.896,7.656 C4.54799826,7.45199898 4.27200102,7.17600174 4.068,6.828 C3.86399898,6.47999826 3.762,6.10800198 3.762,5.712 C3.762,5.31599802 3.86399898,4.94400174 4.068,4.596 C4.27200102,4.24799826 4.54799826,3.97200102 4.896,3.768 C5.24400174,3.56399898 5.61599802,3.462 6.012,3.462 C6.40800198,3.462 6.77699829,3.56399898 7.119,3.768 C7.46100171,3.97200102 7.73099901,4.24499829 7.929,4.587 C8.12700099,4.92900171 8.226,5.30399796 8.226,5.712 C8.226,6.12000204 8.12700099,6.49499829 7.929,6.837 C7.73099901,7.17900171 7.46100171,7.45199898 7.119,7.656 C6.77699829,7.86000102 6.40800198,7.962 6.012,7.962 Z M11.988,7.962 C11.591998,7.962 11.2200017,7.86000102 10.872,7.656 C10.5239983,7.45199898 10.248001,7.17600174 10.044,6.828 C9.83999898,6.47999826 9.738,6.10800198 9.738,5.712 C9.738,5.31599802 9.83999898,4.94400174 10.044,4.596 C10.248001,4.24799826 10.5239983,3.97200102 10.872,3.768 C11.2200017,3.56399898 11.591998,3.462 11.988,3.462 C12.384002,3.462 12.7559983,3.56399898 13.104,3.768 C13.4520017,3.97200102 13.727999,4.24799826 13.932,4.596 C14.136001,4.94400174 14.238,5.31599802 14.238,5.712 C14.238,6.10800198 14.136001,6.47999826 13.932,6.828 C13.727999,7.17600174 13.4520017,7.45199898 13.104,7.656 C12.7559983,7.86000102 12.384002,7.962 11.988,7.962 Z" id="group---material" fill="#FFFFFF"></path>
    </g>
</svg>