<?xml version="1.0" encoding="UTF-8"?>
<svg width="18px" height="18px" viewBox="0 0 18 18" version="1.1" xmlns="http://www.w3.org/2000/svg" xmlns:xlink="http://www.w3.org/1999/xlink">
    <!-- Generator: Sketch 49 (51002) - http://www.bohemiancoding.com/sketch -->
    <title>icon-list copy</title>
    <desc>Created with Sketch.</desc>
    <defs></defs>
    <g id="icon-list-copy" stroke="none" stroke-width="1" fill="none" fill-rule="evenodd">
        <path d="M5.238,3.462 L15.75,3.462 L15.75,4.938 L5.238,4.938 L5.238,3.462 Z M5.238,9.438 L5.238,7.962 L15.75,7.962 L15.75,9.438 L5.238,9.438 Z M5.238,13.938 L5.238,12.462 L15.75,12.462 L15.75,13.938 L5.238,13.938 Z M2.988,12.066 C3.30000156,12.066 3.56699889,12.1799989 3.789,12.408 C4.01100111,12.6360011 4.122,12.8999985 4.122,13.2 C4.122,13.5000015 4.00800114,13.7609989 3.78,13.983 C3.55199886,14.2050011 3.2880015,14.316 2.988,14.316 C2.6879985,14.316 2.42700111,14.2050011 2.205,13.983 C1.98299889,13.7609989 1.872,13.5000015 1.872,13.2 C1.872,12.8999985 1.97999892,12.6360011 2.196,12.408 C2.41200108,12.1799989 2.67599844,12.066 2.988,12.066 Z M2.988,3.066 C3.30000156,3.066 3.56699889,3.17699889 3.789,3.399 C4.01100111,3.62100111 4.122,3.88799844 4.122,4.2 C4.122,4.51200156 4.01100111,4.77599892 3.789,4.992 C3.56699889,5.20800108 3.30000156,5.316 2.988,5.316 C2.67599844,5.316 2.41200108,5.20800108 2.196,4.992 C1.97999892,4.77599892 1.872,4.51200156 1.872,4.2 C1.872,3.88799844 1.97999892,3.62100111 2.196,3.399 C2.41200108,3.17699889 2.67599844,3.066 2.988,3.066 Z M2.988,7.566 C3.30000156,7.566 3.56699889,7.67699889 3.789,7.899 C4.01100111,8.12100111 4.122,8.38799844 4.122,8.7 C4.122,9.01200156 4.01100111,9.27599892 3.789,9.492 C3.56699889,9.70800108 3.30000156,9.816 2.988,9.816 C2.67599844,9.816 2.41200108,9.70800108 2.196,9.492 C1.97999892,9.27599892 1.872,9.01200156 1.872,8.7 C1.872,8.38799844 1.97999892,8.12100111 2.196,7.899 C2.41200108,7.67699889 2.67599844,7.566 2.988,7.566 Z" id="format_list_bulleted---material" fill="#FFFFFF"></path>
    </g>
</svg>