<?xml version="1.0" standalone="no"?><!DOCTYPE svg PUBLIC "-//W3C//DTD SVG 1.1//EN" "http://www.w3.org/Graphics/SVG/1.1/DTD/svg11.dtd"><svg class="icon" width="18px" height="18.00px" viewBox="0 0 1024 1024" version="1.1" xmlns="http://www.w3.org/2000/svg"><path fill="#2c3e50" d="M729.6 377.6l78.933333-153.6c2.133333-2.133333 2.133333-6.4 2.133334-10.666667V85.333333c0-21.333333 0-21.333333-110.933334-21.333333H213.333333c-6.4 0-10.666667 2.133333-14.933333 6.4-4.266667 4.266667-6.4 8.533333-6.4 14.933333v128c0 4.266667 0 6.4 2.133333 8.533334l85.333334 168.533333C213.333333 454.4 170.666667 541.866667 170.666667 640c0 187.733333 153.6 341.333333 341.333333 341.333333s341.333333-153.6 341.333333-341.333333c0-106.666667-46.933333-200.533333-123.733333-262.4zM768 106.666667v102.4l-72.533333 142.933333c-10.666667-6.4-23.466667-12.8-34.133334-19.2V106.666667h106.666667z m-256 192c-44.8 0-87.466667 8.533333-128 25.6V106.666667h234.666667v209.066666c-34.133333-10.666667-68.266667-17.066667-106.666667-17.066666zM234.666667 206.933333V106.666667h106.666666v238.933333c-10.666667 6.4-19.2 12.8-29.866666 19.2L234.666667 206.933333zM512 938.666667c-164.266667 0-298.666667-134.4-298.666667-298.666667s134.4-298.666667 298.666667-298.666667 298.666667 134.4 298.666667 298.666667-134.4 298.666667-298.666667 298.666667zM512 448c-106.666667 0-192 85.333333-192 192s85.333333 192 192 192 192-85.333333 192-192-85.333333-192-192-192z m0 341.333333c-83.2 0-149.333333-66.133333-149.333333-149.333333s66.133333-149.333333 149.333333-149.333333 149.333333 66.133333 149.333333 149.333333-66.133333 149.333333-149.333333 149.333333z" /></svg>