<?xml version="1.0" standalone="no"?><!DOCTYPE svg PUBLIC "-//W3C//DTD SVG 1.1//EN" "http://www.w3.org/Graphics/SVG/1.1/DTD/svg11.dtd"><svg class="icon" width="18px" height="18.00px" viewBox="0 0 1024 1024" version="1.1" xmlns="http://www.w3.org/2000/svg"><path fill="#2c3e50" d="M514.133333 640m-149.333333 0a149.333333 149.333333 0 1 0 298.666667 0 149.333333 149.333333 0 1 0-298.666667 0ZM731.733333 375.466667l76.8-151.466667c2.133333-2.133333 2.133333-6.4 2.133334-8.533333v-128c0-6.4-2.133333-10.666667-6.4-14.933334-4.266667-8.533333-4.266667-8.533333-302.933334-8.533333H213.333333c-6.4 0-10.666667 2.133333-14.933333 6.4-4.266667 4.266667-6.4 8.533333-6.4 14.933333v128c0 4.266667 0 6.4 2.133333 8.533334l85.333334 170.666666c-66.133333 61.866667-106.666667 149.333333-106.666667 247.466667 0 187.733333 153.6 341.333333 341.333333 341.333333s341.333333-153.6 341.333334-341.333333c0-106.666667-49.066667-200.533333-123.733334-264.533333zM618.666667 128c0-12.8 8.533333-21.333333 21.333333-21.333333s21.333333 8.533333 21.333333 21.333333v189.866667c0 12.8-8.533333 21.333333-21.333333 21.333333s-21.333333-8.533333-21.333333-21.333333V128z m-277.333334-2.133333c0-12.8 8.533333-21.333333 21.333334-21.333334s21.333333 8.533333 21.333333 21.333334v192c0 12.8-8.533333 21.333333-21.333333 21.333333s-21.333333-8.533333-21.333334-21.333333v-192zM514.133333 832c-106.666667 0-192-85.333333-192-192s85.333333-192 192-192 192 85.333333 192 192-85.333333 192-192 192z" /></svg>