<?xml version="1.0" encoding="UTF-8"?>
<svg width="18px" height="18px" viewBox="0 0 18 18" version="1.1" xmlns="http://www.w3.org/2000/svg" xmlns:xlink="http://www.w3.org/1999/xlink">
    <!-- Generator: Sketch 49 (51002) - http://www.bohemiancoding.com/sketch -->
    <title>icon-order</title>
    <desc>Created with Sketch.</desc>
    <defs></defs>
    <g id="icon-order" stroke="none" stroke-width="1" fill="none" fill-rule="evenodd">
        <path d="M12.762,6.45 L12.762,4.938 L5.238,4.938 L5.238,6.45 L12.762,6.45 Z M12.762,9.438 L12.762,7.962 L5.238,7.962 L5.238,9.438 L12.762,9.438 Z M10.512,12.462 L10.512,10.95 L5.238,10.95 L5.238,12.462 L10.512,12.462 Z M9,1.95 C8.79599898,1.95 8.62200072,2.02199928 8.478,2.166 C8.33399928,2.31000072 8.262,2.48399898 8.262,2.688 C8.262,2.89200102 8.33399928,3.07199922 8.478,3.228 C8.62200072,3.38400078 8.79599898,3.462 9,3.462 C9.20400102,3.462 9.37799928,3.38400078 9.522,3.228 C9.66600072,3.07199922 9.738,2.89200102 9.738,2.688 C9.738,2.48399898 9.66600072,2.31000072 9.522,2.166 C9.37799928,2.02199928 9.20400102,1.95 9,1.95 Z M14.238,1.95 C14.646002,1.95 14.9999985,2.0999985 15.3,2.4 C15.6000015,2.7000015 15.75,3.05399796 15.75,3.462 L15.75,13.938 C15.75,14.346002 15.6000015,14.6999985 15.3,15 C14.9999985,15.3000015 14.646002,15.45 14.238,15.45 L3.762,15.45 C3.35399796,15.45 3.0000015,15.3000015 2.7,15 C2.3999985,14.6999985 2.25,14.346002 2.25,13.938 L2.25,3.462 C2.25,3.05399796 2.3999985,2.7000015 2.7,2.4 C3.0000015,2.0999985 3.35399796,1.95 3.762,1.95 L6.894,1.95 C7.05000078,1.50599778 7.31699811,1.14300141 7.695,0.861 C8.07300189,0.57899859 8.50799754,0.438 9,0.438 C9.49200246,0.438 9.92699811,0.57899859 10.305,0.861 C10.6830019,1.14300141 10.9499992,1.50599778 11.106,1.95 L14.238,1.95 Z" id="assignment---material" fill="#FFFFFF"></path>
    </g>
</svg>