<?xml version="1.0" standalone="no"?><!DOCTYPE svg PUBLIC "-//W3C//DTD SVG 1.1//EN" "http://www.w3.org/Graphics/SVG/1.1/DTD/svg11.dtd"><svg class="icon" width="18px" height="18.00px" viewBox="0 0 1024 1024" version="1.1" xmlns="http://www.w3.org/2000/svg"><path fill="#2c3e50" d="M419.2 160v256h-256V160h256m0-64h-256c-35.2 0-64 28.8-64 64v256c0 35.2 28.8 64 64 64h256c35.2 0 64-28.8 64-64V160c0-35.2-28.8-64-64-64zM899.2 160v256h-256V160h256m0-64h-256c-35.2 0-64 28.8-64 64v256c0 35.2 28.8 64 64 64h256c35.2 0 64-28.8 64-64V160c0-35.2-28.8-64-64-64zM419.2 608v256h-256v-256h256m0-64h-256c-35.2 0-64 28.8-64 64v256c0 35.2 28.8 64 64 64h256c35.2 0 64-28.8 64-64v-256c0-35.2-28.8-64-64-64zM611.2 896c-19.2 0-32-12.8-32-32v-256c0-19.2 12.8-32 32-32s32 12.8 32 32v256c0 16-16 32-32 32zM768 896c-19.2 0-32-12.8-32-32v-256c0-19.2 12.8-32 32-32s32 12.8 32 32v256c0 16-16 32-32 32zM931.2 896c-19.2 0-32-12.8-32-32v-256c0-19.2 12.8-32 32-32s32 12.8 32 32v256c0 16-16 32-32 32z"  /></svg>