<?xml version="1.0" standalone="no"?><!DOCTYPE svg PUBLIC "-//W3C//DTD SVG 1.1//EN" "http://www.w3.org/Graphics/SVG/1.1/DTD/svg11.dtd"><svg class="icon" width="18px" height="18.00px" viewBox="0 0 1024 1024" version="1.1" xmlns="http://www.w3.org/2000/svg"><path fill="#2c3e50" d="M800 64H224C171.072 64 128 107.072 128 160v96a32 32 0 0 0 26.336 31.488l356 64a30.56 30.56 0 0 0 11.456-0.032l348-64A32 32 0 0 0 896 256V160c0-52.928-43.072-96-96-96zM884.512 359.424a31.744 31.744 0 0 0-26.208-6.912L512 415.456 165.728 352.512A32.064 32.064 0 0 0 128 384v480c0 52.928 43.072 96 96 96h576c52.928 0 96-43.072 96-96V384c0-9.472-4.224-18.496-11.488-24.576zM607.808 608a32 32 0 1 1 0 64H544v32h63.808a32 32 0 1 1 0 64H544v64.416a32 32 0 1 1-64 0V768h-64.256a32 32 0 1 1 0-64H480v-32h-64.256a32 32 0 1 1 0-64h51.168l-74.016-73.664a31.968 31.968 0 0 1 45.184-45.12l73.376 73.216 76.256-73.6a32 32 0 0 1 45.248 0.768 31.872 31.872 0 0 1-0.8 45.152L555.968 608h51.84z" /></svg>