<?xml version="1.0" encoding="UTF-8"?>
<svg width="18px" height="18px" viewBox="0 0 18 18" version="1.1" xmlns="http://www.w3.org/2000/svg" xmlns:xlink="http://www.w3.org/1999/xlink">
    <!-- Generator: Sketch 49 (51002) - http://www.bohemiancoding.com/sketch -->
    <title>icon-service</title>
    <desc>Created with Sketch.</desc>
    <defs></defs>
    <g id="icon-service" stroke="none" stroke-width="1" fill="none" fill-rule="evenodd">
        <path d="M13.392,10.212 C13.2119991,9.75599772 13.122,9.24900279 13.122,8.691 C13.122,8.13299721 13.2119991,7.63200222 13.392,7.188 L14.634,7.188 L15.75,5.712 L14.274,4.2 C13.7699975,4.57200186 13.3410018,5.01299745 12.987,5.523 C12.6329982,6.03300255 12.3720008,6.587997 12.204,7.188 C12.0599993,7.6680024 11.988,8.16899739 11.988,8.691 C11.988,9.21300261 12.0599993,9.71999754 12.204,10.212 C12.3720008,10.8000029 12.6359982,11.3519974 12.996,11.868 C13.3560018,12.3840026 13.7819975,12.8279981 14.274,13.2 L15.75,11.688 L14.634,10.212 L13.392,10.212 Z M10.512,13.2 L10.512,12.462 C10.512,11.9939977 10.2360028,11.5680019 9.684,11.184 C9.21599766,10.8599984 8.60400378,10.602001 7.848,10.41 C7.17599664,10.2299991 6.56400276,10.14 6.012,10.14 C5.45999724,10.14 4.84800336,10.2299991 4.176,10.41 C3.41999622,10.602001 2.80800234,10.8599984 2.34,11.184 C1.78799724,11.5680019 1.512,11.9939977 1.512,12.462 L1.512,13.2 L10.512,13.2 Z M6.012,4.2 C5.61599802,4.2 5.24400174,4.30199898 4.896,4.506 C4.54799826,4.71000102 4.27200102,4.98599826 4.068,5.334 C3.86399898,5.68200174 3.762,6.05399802 3.762,6.45 C3.762,6.84600198 3.86399898,7.21799826 4.068,7.566 C4.27200102,7.91400174 4.54799826,8.18999898 4.896,8.394 C5.24400174,8.59800102 5.61599802,8.7 6.012,8.7 C6.40800198,8.7 6.77999826,8.59800102 7.128,8.394 C7.47600174,8.18999898 7.75199898,7.91400174 7.956,7.566 C8.16000102,7.21799826 8.262,6.84600198 8.262,6.45 C8.262,6.05399802 8.16000102,5.68200174 7.956,5.334 C7.75199898,4.98599826 7.47600174,4.71000102 7.128,4.506 C6.77999826,4.30199898 6.40800198,4.2 6.012,4.2 Z M16.488,1.95 C16.896002,1.95 17.2499985,2.0999985 17.55,2.4 C17.8500015,2.7000015 18,3.05399796 18,3.462 L18,13.938 C18,14.346002 17.8500015,14.6999985 17.55,15 C17.2499985,15.3000015 16.896002,15.45 16.488,15.45 L1.512,15.45 C1.10399796,15.45 0.7500015,15.3000015 0.45,15 C0.1499985,14.6999985 0,14.346002 0,13.938 L0,3.462 C0,3.05399796 0.1499985,2.7000015 0.45,2.4 C0.7500015,2.0999985 1.10399796,1.95 1.512,1.95 L16.488,1.95 Z" id="contact_phone---material" fill="#FFFFFF"></path>
    </g>
</svg>