<svg xmlns="http://www.w3.org/2000/svg" viewBox="0 0 16 16"><path d="M8 10c.4 0 .8-.1 1.2-.3.4-.2.7-.5.9-.9.2-.4.3-.7.3-1.2s-.1-.7-.4-1.1c-.2-.4-.5-.7-.9-.9-.3-.2-.7-.3-1.1-.3s-.8.1-1.2.4-.6.5-.8.8c-.2.4-.3.8-.3 1.2s.1.8.3 1.2c.2.4.5.6.9.9.3.1.7.2 1.1.2zm5-1.6l1.4 1.1c.1.1.1.1.1.2v.2l-1.3 2.3c0 .1-.1.1-.2.1h-.2l-1.8-.6c-.4.3-.8.5-1.1.7l-.2 1.7c0 .1-.1.2-.1.2-.1.1-.1.1-.2.1H6.7c-.1 0-.1 0-.2-.1s-.1-.1-.1-.2l-.3-1.7c-.4-.2-.8-.4-1.1-.7l-1.7.7c-.2.1-.3 0-.4-.1L1.6 10c0-.1-.1-.2 0-.2 0-.1 0-.2.1-.2L3 8.4v-.7V7L1.6 6c0-.1-.1-.2-.1-.3v-.2l1.3-2.3c.2-.2.3-.2.5-.1l1.7.6c.4-.3.8-.5 1.1-.7l.3-1.7c0-.1 0-.2.1-.2 0 0 .1-.1.2-.1h2.7c.1 0 .1 0 .2.1s.1.1.1.2L9.9 3c.4.2.8.4 1.1.7l1.7-.7h.2c.1 0 .1.1.2.1l1.3 2.3c0 .1.1.2 0 .2 0 .1 0 .2-.1.2L13 7v1.4z" clip-rule="evenodd"/></svg>