<svg class="icon" width="64" height="64" viewBox="0 0 1024 1024" xmlns="http://www.w3.org/2000/svg"><path d="M874.667 832h-256v85.333H448V832H192c-46.933 0-85.333-38.4-85.333-85.333V149.333C106.667 102.4 145.067 64 192 64h682.667C921.6 64 960 102.4 960 149.333v597.334C960 793.6 921.6 832 874.667 832zM320 405.333h-85.333V576H320V405.333zm170.667-170.666h-85.334V576h85.334V234.667zM661.333 320H576v256h85.333V320zM832 405.333h-85.333V576H832V405.333zm0 213.334H234.667v42.666H832v-42.666zM149.333 917.333h768C942.933 917.333 960 934.4 960 960s-17.067 42.667-42.667 42.667h-768c-25.6 0-42.666-17.067-42.666-42.667s17.066-42.667 42.666-42.667z"/></svg>